<mxfile host="65bd71144e">
    <diagram id="R_TKy8VqYTgAUo9lzNEU" name="Page-1">
        <mxGraphModel dx="1615" dy="1663" grid="1" gridSize="10" guides="1" tooltips="1" connect="1" arrows="1" fold="1" page="1" pageScale="1" pageWidth="850" pageHeight="1100" background="#ffffff" math="0" shadow="1">
            <root>
                <mxCell id="0"/>
                <mxCell id="1" parent="0"/>
                <UserObject label="" mermaidData="{&#xa;  &quot;data&quot;: &quot;classDiagram\n    %% Interfaces\n    class Door {\n        &lt;&lt;interface&gt;&gt;\n        +open()\n        +close()\n    }\n\n    class DoorFittingExpert {\n        &lt;&lt;interface&gt;&gt;\n        +fitDoor(Door door)\n    }\n\n    class DoorFactory {\n        &lt;&lt;interface&gt;&gt;\n        +makeDoor() Door\n        +makeFittingExpert() DoorFittingExpert\n    }\n\n    %% Concrete Door Implementations\n    class WoodenDoor {\n        +open()\n        +close()\n    }\n\n    class IronDoor {\n        +open()\n        +close()\n    }\n\n    %% Concrete DoorFittingExpert Implementations\n    class Carpenter {\n        +fitDoor(Door door)\n    }\n\n    class Welder {\n        +fitDoor(Door door)\n    }\n\n    %% Concrete Factories\n    class WoodenDoorFactory {\n        +makeDoor() Door\n        +makeFittingExpert() DoorFittingExpert\n    }\n\n    class IronDoorFactory {\n        +makeDoor() Door\n        +makeFittingExpert() DoorFittingExpert\n    }\n\n    %% Client\n    class AbstractFactoryDP {\n        +main(String[] args)\n    }\n\n    %% Relationships\n    Door &lt;|.. WoodenDoor : implements\n    Door &lt;|.. IronDoor : implements\n\n    DoorFittingExpert &lt;|.. Carpenter : implements\n    DoorFittingExpert &lt;|.. Welder : implements\n\n    DoorFactory &lt;|.. WoodenDoorFactory : implements\n    DoorFactory &lt;|.. IronDoorFactory : implements\n\n    WoodenDoorFactory --&gt; WoodenDoor : creates\n    WoodenDoorFactory --&gt; Carpenter : creates\n\n    IronDoorFactory --&gt; IronDoor : creates\n    IronDoorFactory --&gt; Welder : creates\n\n    AbstractFactoryDP --&gt; DoorFactory : uses\n    AbstractFactoryDP --&gt; DoorFittingExpert : uses\n&quot;&#xa;}" id="2">
                    <mxCell style="shape=image;noLabel=1;verticalAlign=top;imageAspect=1;image=data:image/svg+xml,PHN2ZyBhcmlhLXJvbGVkZXNjcmlwdGlvbj0iY2xhc3MiIHJvbGU9ImdyYXBoaWNzLWRvY3VtZW50IGRvY3VtZW50IiB2aWV3Qm94PSItMiAwIDEzMzIuMDQzODIzMjQyMTg3NSA4NTcuMjAwMDczMjQyMTg3NSIgc3R5bGU9Im1heC13aWR0aDogMTMzMi4wNDM4MjMyNDIxODc1cHg7IiBjbGFzcz0iY2xhc3NEaWFncmFtIiB4bWxucz0iaHR0cDovL3d3dy53My5vcmcvMjAwMC9zdmciIHdpZHRoPSIxMDAlIiBpZD0iZ2VNZXJtYWlkT3V0cHV0LTE3NTMxMTM2NzY3MDYiPjxzdHlsZT4jZ2VNZXJtYWlkT3V0cHV0LTE3NTMxMTM2NzY3MDZ7Zm9udC1mYW1pbHk6InRyZWJ1Y2hldCBtcyIsdmVyZGFuYSxhcmlhbCxzYW5zLXNlcmlmO2ZvbnQtc2l6ZToxNnB4O2ZpbGw6IzAwMDAwMDt9I2dlTWVybWFpZE91dHB1dC0xNzUzMTEzNjc2NzA2IC5lcnJvci1pY29ue2ZpbGw6IzU1MjIyMjt9I2dlTWVybWFpZE91dHB1dC0xNzUzMTEzNjc2NzA2IC5lcnJvci10ZXh0e2ZpbGw6IzU1MjIyMjtzdHJva2U6IzU1MjIyMjt9I2dlTWVybWFpZE91dHB1dC0xNzUzMTEzNjc2NzA2IC5lZGdlLXRoaWNrbmVzcy1ub3JtYWx7c3Ryb2tlLXdpZHRoOjFweDt9I2dlTWVybWFpZE91dHB1dC0xNzUzMTEzNjc2NzA2IC5lZGdlLXRoaWNrbmVzcy10aGlja3tzdHJva2Utd2lkdGg6My41cHg7fSNnZU1lcm1haWRPdXRwdXQtMTc1MzExMzY3NjcwNiAuZWRnZS1wYXR0ZXJuLXNvbGlke3N0cm9rZS1kYXNoYXJyYXk6MDt9I2dlTWVybWFpZE91dHB1dC0xNzUzMTEzNjc2NzA2IC5lZGdlLXRoaWNrbmVzcy1pbnZpc2libGV7c3Ryb2tlLXdpZHRoOjA7ZmlsbDpub25lO30jZ2VNZXJtYWlkT3V0cHV0LTE3NTMxMTM2NzY3MDYgLmVkZ2UtcGF0dGVybi1kYXNoZWR7c3Ryb2tlLWRhc2hhcnJheTozO30jZ2VNZXJtYWlkT3V0cHV0LTE3NTMxMTM2NzY3MDYgLmVkZ2UtcGF0dGVybi1kb3R0ZWR7c3Ryb2tlLWRhc2hhcnJheToyO30jZ2VNZXJtYWlkT3V0cHV0LTE3NTMxMTM2NzY3MDYgLm1hcmtlcntmaWxsOiM2NjY7c3Ryb2tlOiM2NjY7fSNnZU1lcm1haWRPdXRwdXQtMTc1MzExMzY3NjcwNiAubWFya2VyLmNyb3Nze3N0cm9rZTojNjY2O30jZ2VNZXJtYWlkT3V0cHV0LTE3NTMxMTM2NzY3MDYgc3Zne2ZvbnQtZmFtaWx5OiJ0cmVidWNoZXQgbXMiLHZlcmRhbmEsYXJpYWwsc2Fucy1zZXJpZjtmb250LXNpemU6MTZweDt9I2dlTWVybWFpZE91dHB1dC0xNzUzMTEzNjc2NzA2IHB7bWFyZ2luOjA7fSNnZU1lcm1haWRPdXRwdXQtMTc1MzExMzY3NjcwNiBnLmNsYXNzR3JvdXAgdGV4dHtmaWxsOiM5OTk7c3Ryb2tlOm5vbmU7Zm9udC1mYW1pbHk6InRyZWJ1Y2hldCBtcyIsdmVyZGFuYSxhcmlhbCxzYW5zLXNlcmlmO2ZvbnQtc2l6ZToxMHB4O30jZ2VNZXJtYWlkT3V0cHV0LTE3NTMxMTM2NzY3MDYgZy5jbGFzc0dyb3VwIHRleHQgLnRpdGxle2ZvbnQtd2VpZ2h0OmJvbGRlcjt9I2dlTWVybWFpZE91dHB1dC0xNzUzMTEzNjc2NzA2IC5ub2RlTGFiZWwsI2dlTWVybWFpZE91dHB1dC0xNzUzMTEzNjc2NzA2IC5lZGdlTGFiZWx7Y29sb3I6IzExMTExMTt9I2dlTWVybWFpZE91dHB1dC0xNzUzMTEzNjc2NzA2IC5lZGdlTGFiZWwgLmxhYmVsIHJlY3R7ZmlsbDojZWVlO30jZ2VNZXJtYWlkT3V0cHV0LTE3NTMxMTM2NzY3MDYgLmxhYmVsIHRleHR7ZmlsbDojMTExMTExO30jZ2VNZXJtYWlkT3V0cHV0LTE3NTMxMTM2NzY3MDYgLmxhYmVsQmtne2JhY2tncm91bmQ6I2VlZTt9I2dlTWVybWFpZE91dHB1dC0xNzUzMTEzNjc2NzA2IC5lZGdlTGFiZWwgLmxhYmVsIHNwYW57YmFja2dyb3VuZDojZWVlO30jZ2VNZXJtYWlkT3V0cHV0LTE3NTMxMTM2NzY3MDYgLmNsYXNzVGl0bGV7Zm9udC13ZWlnaHQ6Ym9sZGVyO30jZ2VNZXJtYWlkT3V0cHV0LTE3NTMxMTM2NzY3MDYgLm5vZGUgcmVjdCwjZ2VNZXJtYWlkT3V0cHV0LTE3NTMxMTM2NzY3MDYgLm5vZGUgY2lyY2xlLCNnZU1lcm1haWRPdXRwdXQtMTc1MzExMzY3NjcwNiAubm9kZSBlbGxpcHNlLCNnZU1lcm1haWRPdXRwdXQtMTc1MzExMzY3NjcwNiAubm9kZSBwb2x5Z29uLCNnZU1lcm1haWRPdXRwdXQtMTc1MzExMzY3NjcwNiAubm9kZSBwYXRoe2ZpbGw6I2VlZTtzdHJva2U6Izk5OTtzdHJva2Utd2lkdGg6MXB4O30jZ2VNZXJtYWlkT3V0cHV0LTE3NTMxMTM2NzY3MDYgLmRpdmlkZXJ7c3Ryb2tlOiM5OTk7c3Ryb2tlLXdpZHRoOjE7fSNnZU1lcm1haWRPdXRwdXQtMTc1MzExMzY3NjcwNiBnLmNsaWNrYWJsZXtjdXJzb3I6cG9pbnRlcjt9I2dlTWVybWFpZE91dHB1dC0xNzUzMTEzNjc2NzA2IGcuY2xhc3NHcm91cCByZWN0e2ZpbGw6I2VlZTtzdHJva2U6Izk5OTt9I2dlTWVybWFpZE91dHB1dC0xNzUzMTEzNjc2NzA2IGcuY2xhc3NHcm91cCBsaW5le3N0cm9rZTojOTk5O3N0cm9rZS13aWR0aDoxO30jZ2VNZXJtYWlkT3V0cHV0LTE3NTMxMTM2NzY3MDYgLmNsYXNzTGFiZWwgLmJveHtzdHJva2U6bm9uZTtzdHJva2Utd2lkdGg6MDtmaWxsOiNlZWU7b3BhY2l0eTowLjU7fSNnZU1lcm1haWRPdXRwdXQtMTc1MzExMzY3NjcwNiAuY2xhc3NMYWJlbCAubGFiZWx7ZmlsbDojOTk5O2ZvbnQtc2l6ZToxMHB4O30jZ2VNZXJtYWlkT3V0cHV0LTE3NTMxMTM2NzY3MDYgLnJlbGF0aW9ue3N0cm9rZTojNjY2O3N0cm9rZS13aWR0aDoxO2ZpbGw6bm9uZTt9I2dlTWVybWFpZE91dHB1dC0xNzUzMTEzNjc2NzA2IC5kYXNoZWQtbGluZXtzdHJva2UtZGFzaGFycmF5OjM7fSNnZU1lcm1haWRPdXRwdXQtMTc1MzExMzY3NjcwNiAuZG90dGVkLWxpbmV7c3Ryb2tlLWRhc2hhcnJheToxIDI7fSNnZU1lcm1haWRPdXRwdXQtMTc1MzExMzY3NjcwNiAjY29tcG9zaXRpb25TdGFydCwjZ2VNZXJtYWlkT3V0cHV0LTE3NTMxMTM2NzY3MDYgLmNvbXBvc2l0aW9ue2ZpbGw6IzY2NiFpbXBvcnRhbnQ7c3Ryb2tlOiM2NjYhaW1wb3J0YW50O3N0cm9rZS13aWR0aDoxO30jZ2VNZXJtYWlkT3V0cHV0LTE3NTMxMTM2NzY3MDYgI2NvbXBvc2l0aW9uRW5kLCNnZU1lcm1haWRPdXRwdXQtMTc1MzExMzY3NjcwNiAuY29tcG9zaXRpb257ZmlsbDojNjY2IWltcG9ydGFudDtzdHJva2U6IzY2NiFpbXBvcnRhbnQ7c3Ryb2tlLXdpZHRoOjE7fSNnZU1lcm1haWRPdXRwdXQtMTc1MzExMzY3NjcwNiAjZGVwZW5kZW5jeVN0YXJ0LCNnZU1lcm1haWRPdXRwdXQtMTc1MzExMzY3NjcwNiAuZGVwZW5kZW5jeXtmaWxsOiM2NjYhaW1wb3J0YW50O3N0cm9rZTojNjY2IWltcG9ydGFudDtzdHJva2Utd2lkdGg6MTt9I2dlTWVybWFpZE91dHB1dC0xNzUzMTEzNjc2NzA2ICNkZXBlbmRlbmN5U3RhcnQsI2dlTWVybWFpZE91dHB1dC0xNzUzMTEzNjc2NzA2IC5kZXBlbmRlbmN5e2ZpbGw6IzY2NiFpbXBvcnRhbnQ7c3Ryb2tlOiM2NjYhaW1wb3J0YW50O3N0cm9rZS13aWR0aDoxO30jZ2VNZXJtYWlkT3V0cHV0LTE3NTMxMTM2NzY3MDYgI2V4dGVuc2lvblN0YXJ0LCNnZU1lcm1haWRPdXRwdXQtMTc1MzExMzY3NjcwNiAuZXh0ZW5zaW9ue2ZpbGw6dHJhbnNwYXJlbnQhaW1wb3J0YW50O3N0cm9rZTojNjY2IWltcG9ydGFudDtzdHJva2Utd2lkdGg6MTt9I2dlTWVybWFpZE91dHB1dC0xNzUzMTEzNjc2NzA2ICNleHRlbnNpb25FbmQsI2dlTWVybWFpZE91dHB1dC0xNzUzMTEzNjc2NzA2IC5leHRlbnNpb257ZmlsbDp0cmFuc3BhcmVudCFpbXBvcnRhbnQ7c3Ryb2tlOiM2NjYhaW1wb3J0YW50O3N0cm9rZS13aWR0aDoxO30jZ2VNZXJtYWlkT3V0cHV0LTE3NTMxMTM2NzY3MDYgI2FnZ3JlZ2F0aW9uU3RhcnQsI2dlTWVybWFpZE91dHB1dC0xNzUzMTEzNjc2NzA2IC5hZ2dyZWdhdGlvbntmaWxsOnRyYW5zcGFyZW50IWltcG9ydGFudDtzdHJva2U6IzY2NiFpbXBvcnRhbnQ7c3Ryb2tlLXdpZHRoOjE7fSNnZU1lcm1haWRPdXRwdXQtMTc1MzExMzY3NjcwNiAjYWdncmVnYXRpb25FbmQsI2dlTWVybWFpZE91dHB1dC0xNzUzMTEzNjc2NzA2IC5hZ2dyZWdhdGlvbntmaWxsOnRyYW5zcGFyZW50IWltcG9ydGFudDtzdHJva2U6IzY2NiFpbXBvcnRhbnQ7c3Ryb2tlLXdpZHRoOjE7fSNnZU1lcm1haWRPdXRwdXQtMTc1MzExMzY3NjcwNiAjbG9sbGlwb3BTdGFydCwjZ2VNZXJtYWlkT3V0cHV0LTE3NTMxMTM2NzY3MDYgLmxvbGxpcG9we2ZpbGw6I2VlZSFpbXBvcnRhbnQ7c3Ryb2tlOiM2NjYhaW1wb3J0YW50O3N0cm9rZS13aWR0aDoxO30jZ2VNZXJtYWlkT3V0cHV0LTE3NTMxMTM2NzY3MDYgI2xvbGxpcG9wRW5kLCNnZU1lcm1haWRPdXRwdXQtMTc1MzExMzY3NjcwNiAubG9sbGlwb3B7ZmlsbDojZWVlIWltcG9ydGFudDtzdHJva2U6IzY2NiFpbXBvcnRhbnQ7c3Ryb2tlLXdpZHRoOjE7fSNnZU1lcm1haWRPdXRwdXQtMTc1MzExMzY3NjcwNiAuZWRnZVRlcm1pbmFsc3tmb250LXNpemU6MTFweDtsaW5lLWhlaWdodDppbml0aWFsO30jZ2VNZXJtYWlkT3V0cHV0LTE3NTMxMTM2NzY3MDYgLmNsYXNzVGl0bGVUZXh0e3RleHQtYW5jaG9yOm1pZGRsZTtmb250LXNpemU6MThweDtmaWxsOiMwMDAwMDA7fSNnZU1lcm1haWRPdXRwdXQtMTc1MzExMzY3NjcwNiA6cm9vdHstLW1lcm1haWQtZm9udC1mYW1pbHk6InRyZWJ1Y2hldCBtcyIsdmVyZGFuYSxhcmlhbCxzYW5zLXNlcmlmO308L3N0eWxlPjxnPjxkZWZzPjxtYXJrZXIgb3JpZW50PSJhdXRvIiBtYXJrZXJIZWlnaHQ9IjI0MCIgbWFya2VyV2lkdGg9IjE5MCIgcmVmWT0iNyIgcmVmWD0iMTgiIGNsYXNzPSJtYXJrZXIgYWdncmVnYXRpb24gY2xhc3MiIGlkPSJnZU1lcm1haWRPdXRwdXQtMTc1MzExMzY3NjcwNl9jbGFzcy1hZ2dyZWdhdGlvblN0YXJ0Ij48cGF0aCBkPSJNIDE4LDcgTDksMTMgTDEsNyBMOSwxIFoiPjwvcGF0aD48L21hcmtlcj48L2RlZnM+PGRlZnM+PG1hcmtlciBvcmllbnQ9ImF1dG8iIG1hcmtlckhlaWdodD0iMjgiIG1hcmtlcldpZHRoPSIyMCIgcmVmWT0iNyIgcmVmWD0iMSIgY2xhc3M9Im1hcmtlciBhZ2dyZWdhdGlvbiBjbGFzcyIgaWQ9ImdlTWVybWFpZE91dHB1dC0xNzUzMTEzNjc2NzA2X2NsYXNzLWFnZ3JlZ2F0aW9uRW5kIj48cGF0aCBkPSJNIDE4LDcgTDksMTMgTDEsNyBMOSwxIFoiPjwvcGF0aD48L21hcmtlcj48L2RlZnM+PGRlZnM+PG1hcmtlciBvcmllbnQ9ImF1dG8iIG1hcmtlckhlaWdodD0iMjQwIiBtYXJrZXJXaWR0aD0iMTkwIiByZWZZPSI3IiByZWZYPSIxOCIgY2xhc3M9Im1hcmtlciBleHRlbnNpb24gY2xhc3MiIGlkPSJnZU1lcm1haWRPdXRwdXQtMTc1MzExMzY3NjcwNl9jbGFzcy1leHRlbnNpb25TdGFydCI+PHBhdGggZD0iTSAxLDcgTDE4LDEzIFYgMSBaIj48L3BhdGg+PC9tYXJrZXI+PC9kZWZzPjxkZWZzPjxtYXJrZXIgb3JpZW50PSJhdXRvIiBtYXJrZXJIZWlnaHQ9IjI4IiBtYXJrZXJXaWR0aD0iMjAiIHJlZlk9IjciIHJlZlg9IjEiIGNsYXNzPSJtYXJrZXIgZXh0ZW5zaW9uIGNsYXNzIiBpZD0iZ2VNZXJtYWlkT3V0cHV0LTE3NTMxMTM2NzY3MDZfY2xhc3MtZXh0ZW5zaW9uRW5kIj48cGF0aCBkPSJNIDEsMSBWIDEzIEwxOCw3IFoiPjwvcGF0aD48L21hcmtlcj48L2RlZnM+PGRlZnM+PG1hcmtlciBvcmllbnQ9ImF1dG8iIG1hcmtlckhlaWdodD0iMjQwIiBtYXJrZXJXaWR0aD0iMTkwIiByZWZZPSI3IiByZWZYPSIxOCIgY2xhc3M9Im1hcmtlciBjb21wb3NpdGlvbiBjbGFzcyIgaWQ9ImdlTWVybWFpZE91dHB1dC0xNzUzMTEzNjc2NzA2X2NsYXNzLWNvbXBvc2l0aW9uU3RhcnQiPjxwYXRoIGQ9Ik0gMTgsNyBMOSwxMyBMMSw3IEw5LDEgWiI+PC9wYXRoPjwvbWFya2VyPjwvZGVmcz48ZGVmcz48bWFya2VyIG9yaWVudD0iYXV0byIgbWFya2VySGVpZ2h0PSIyOCIgbWFya2VyV2lkdGg9IjIwIiByZWZZPSI3IiByZWZYPSIxIiBjbGFzcz0ibWFya2VyIGNvbXBvc2l0aW9uIGNsYXNzIiBpZD0iZ2VNZXJtYWlkT3V0cHV0LTE3NTMxMTM2NzY3MDZfY2xhc3MtY29tcG9zaXRpb25FbmQiPjxwYXRoIGQ9Ik0gMTgsNyBMOSwxMyBMMSw3IEw5LDEgWiI+PC9wYXRoPjwvbWFya2VyPjwvZGVmcz48ZGVmcz48bWFya2VyIG9yaWVudD0iYXV0byIgbWFya2VySGVpZ2h0PSIyNDAiIG1hcmtlcldpZHRoPSIxOTAiIHJlZlk9IjciIHJlZlg9IjYiIGNsYXNzPSJtYXJrZXIgZGVwZW5kZW5jeSBjbGFzcyIgaWQ9ImdlTWVybWFpZE91dHB1dC0xNzUzMTEzNjc2NzA2X2NsYXNzLWRlcGVuZGVuY3lTdGFydCI+PHBhdGggZD0iTSA1LDcgTDksMTMgTDEsNyBMOSwxIFoiPjwvcGF0aD48L21hcmtlcj48L2RlZnM+PGRlZnM+PG1hcmtlciBvcmllbnQ9ImF1dG8iIG1hcmtlckhlaWdodD0iMjgiIG1hcmtlcldpZHRoPSIyMCIgcmVmWT0iNyIgcmVmWD0iMTMiIGNsYXNzPSJtYXJrZXIgZGVwZW5kZW5jeSBjbGFzcyIgaWQ9ImdlTWVybWFpZE91dHB1dC0xNzUzMTEzNjc2NzA2X2NsYXNzLWRlcGVuZGVuY3lFbmQiPjxwYXRoIGQ9Ik0gMTgsNyBMOSwxMyBMMTQsNyBMOSwxIFoiPjwvcGF0aD48L21hcmtlcj48L2RlZnM+PGRlZnM+PG1hcmtlciBvcmllbnQ9ImF1dG8iIG1hcmtlckhlaWdodD0iMjQwIiBtYXJrZXJXaWR0aD0iMTkwIiByZWZZPSI3IiByZWZYPSIxMyIgY2xhc3M9Im1hcmtlciBsb2xsaXBvcCBjbGFzcyIgaWQ9ImdlTWVybWFpZE91dHB1dC0xNzUzMTEzNjc2NzA2X2NsYXNzLWxvbGxpcG9wU3RhcnQiPjxjaXJjbGUgcj0iNiIgY3k9IjciIGN4PSI3IiBmaWxsPSJ0cmFuc3BhcmVudCIgc3Ryb2tlPSJibGFjayI+PC9jaXJjbGU+PC9tYXJrZXI+PC9kZWZzPjxkZWZzPjxtYXJrZXIgb3JpZW50PSJhdXRvIiBtYXJrZXJIZWlnaHQ9IjI0MCIgbWFya2VyV2lkdGg9IjE5MCIgcmVmWT0iNyIgcmVmWD0iMSIgY2xhc3M9Im1hcmtlciBsb2xsaXBvcCBjbGFzcyIgaWQ9ImdlTWVybWFpZE91dHB1dC0xNzUzMTEzNjc2NzA2X2NsYXNzLWxvbGxpcG9wRW5kIj48Y2lyY2xlIHI9IjYiIGN5PSI3IiBjeD0iNyIgZmlsbD0idHJhbnNwYXJlbnQiIHN0cm9rZT0iYmxhY2siPjwvY2lyY2xlPjwvbWFya2VyPjwvZGVmcz48ZyBjbGFzcz0icm9vdCI+PGcgY2xhc3M9ImNsdXN0ZXJzIj48L2c+PGcgY2xhc3M9ImVkZ2VQYXRocyI+PHBhdGggbWFya2VyLXN0YXJ0PSJ1cmwoI2dlTWVybWFpZE91dHB1dC0xNzUzMTEzNjc2NzA2X2NsYXNzLWV4dGVuc2lvblN0YXJ0KSIgc3R5bGU9IjsiIGNsYXNzPSJlZGdlLXRoaWNrbmVzcy1ub3JtYWwgZWRnZS1wYXR0ZXJuLWRhc2hlZCByZWxhdGlvbiIgaWQ9ImlkX0Rvb3JfV29vZGVuRG9vcl8xIiBkPSJNNjAuNTA4LDY0My4yOTFMNTkuMDcxLDY0Ni41NzZDNTcuNjM0LDY0OS44NjEsNTQuNzYxLDY1Ni40Myw1OS4zMTksNjY2LjM3OUM2My44NzcsNjc2LjMyNyw3NS44NjcsNjg5LjY1NSw4MS44NjEsNjk2LjMxOUw4Ny44NTYsNzAyLjk4MiI+PC9wYXRoPjxwYXRoIG1hcmtlci1zdGFydD0idXJsKCNnZU1lcm1haWRPdXRwdXQtMTc1MzExMzY3NjcwNl9jbGFzcy1leHRlbnNpb25TdGFydCkiIHN0eWxlPSI7IiBjbGFzcz0iZWRnZS10aGlja25lc3Mtbm9ybWFsIGVkZ2UtcGF0dGVybi1kYXNoZWQgcmVsYXRpb24iIGlkPSJpZF9Eb29yX0lyb25Eb29yXzIiIGQ9Ik0xNzguNTEsNjIyLjg0TDE4NC4zNzMsNjI5LjUzNEMxOTAuMjM1LDYzNi4yMjcsMjAxLjk2MSw2NDkuNjEzLDIzMC40NzgsNjY5LjM5NUMyNTguOTk2LDY4OS4xNzcsMzA0LjMwNiw3MTUuMzU1LDMyNi45NjEsNzI4LjQ0NEwzNDkuNjE2LDc0MS41MzIiPjwvcGF0aD48cGF0aCBtYXJrZXItc3RhcnQ9InVybCgjZ2VNZXJtYWlkT3V0cHV0LTE3NTMxMTM2NzY3MDZfY2xhc3MtZXh0ZW5zaW9uU3RhcnQpIiBzdHlsZT0iOyIgY2xhc3M9ImVkZ2UtdGhpY2tuZXNzLW5vcm1hbCBlZGdlLXBhdHRlcm4tZGFzaGVkIHJlbGF0aW9uIiBpZD0iaWRfRG9vckZpdHRpbmdFeHBlcnRfQ2FycGVudGVyXzMiIGQ9Ik0xMTEzLjA3OCw2MjcuMTAzTDExMDYuNjg4LDYzMy4wODZDMTEwMC4yOTksNjM5LjA2OSwxMDg3LjUyLDY1MS4wMzQsMTA2MS45NjEsNjY2Ljg3OUMxMDM2LjQwMiw2ODIuNzI1LDk5OC4wNjQsNzAyLjQ0OSw5NzguODk0LDcxMi4zMTJMOTU5LjcyNSw3MjIuMTc0Ij48L3BhdGg+PHBhdGggbWFya2VyLXN0YXJ0PSJ1cmwoI2dlTWVybWFpZE91dHB1dC0xNzUzMTEzNjc2NzA2X2NsYXNzLWV4dGVuc2lvblN0YXJ0KSIgc3R5bGU9IjsiIGNsYXNzPSJlZGdlLXRoaWNrbmVzcy1ub3JtYWwgZWRnZS1wYXR0ZXJuLWRhc2hlZCByZWxhdGlvbiIgaWQ9ImlkX0Rvb3JGaXR0aW5nRXhwZXJ0X1dlbGRlcl80IiBkPSJNMTI0Ni4zMzQsNjMxLjI5MUwxMjQ4LjY0NSw2MzYuNTc2QzEyNTAuOTU3LDY0MS44NjEsMTI1NS41OCw2NTIuNDMsMTI1MC42NjUsNjY1Ljc0OUMxMjQ1Ljc0OSw2NzkuMDY3LDEyMzEuMjk1LDY5NS4xMzMsMTIyNC4wNjgsNzAzLjE2N0wxMjE2Ljg0Miw3MTEuMiI+PC9wYXRoPjxwYXRoIG1hcmtlci1zdGFydD0idXJsKCNnZU1lcm1haWRPdXRwdXQtMTc1MzExMzY3NjcwNl9jbGFzcy1leHRlbnNpb25TdGFydCkiIHN0eWxlPSI7IiBjbGFzcz0iZWRnZS10aGlja25lc3Mtbm9ybWFsIGVkZ2UtcGF0dGVybi1kYXNoZWQgcmVsYXRpb24iIGlkPSJpZF9Eb29yRmFjdG9yeV9Xb29kZW5Eb29yRmFjdG9yeV81IiBkPSJNNDYyLjQxNSwzODkuMjQxTDQ1NC4zMjksMzkzLjgwMUM0NDYuMjQzLDM5OC4zNjEsNDMwLjA3LDQwNy40OCw0MjEuOTgzLDQyMC4wNzRDNDEzLjg5Nyw0MzIuNjY3LDQxMy44OTcsNDQ4LjczMyw0MTMuODk3LDQ1Ni43NjdMNDEzLjg5Nyw0NjQuOCI+PC9wYXRoPjxwYXRoIG1hcmtlci1zdGFydD0idXJsKCNnZU1lcm1haWRPdXRwdXQtMTc1MzExMzY3NjcwNl9jbGFzcy1leHRlbnNpb25TdGFydCkiIHN0eWxlPSI7IiBjbGFzcz0iZWRnZS10aGlja25lc3Mtbm9ybWFsIGVkZ2UtcGF0dGVybi1kYXNoZWQgcmVsYXRpb24iIGlkPSJpZF9Eb29yRmFjdG9yeV9Jcm9uRG9vckZhY3RvcnlfNiIgZD0iTTgwMi4zNDcsMzg5LjI0MUw4MTAuNDM0LDM5My44MDFDODE4LjUyLDM5OC4zNjEsODM0LjY5Myw0MDcuNDgsODQyLjc3OSw0MjAuMDc0Qzg1MC44NjYsNDMyLjY2Nyw4NTAuODY2LDQ0OC43MzMsODUwLjg2Niw0NTYuNzY3TDg1MC44NjYsNDY0LjgiPjwvcGF0aD48cGF0aCBtYXJrZXItZW5kPSJ1cmwoI2dlTWVybWFpZE91dHB1dC0xNzUzMTEzNjc2NzA2X2NsYXNzLWRlcGVuZGVuY3lFbmQpIiBzdHlsZT0iOyIgY2xhc3M9ImVkZ2UtdGhpY2tuZXNzLW5vcm1hbCBlZGdlLXBhdHRlcm4tc29saWQgcmVsYXRpb24iIGlkPSJpZF9Xb29kZW5Eb29yRmFjdG9yeV9Xb29kZW5Eb29yXzciIGQ9Ik0zNDguMjA0LDYxNC44TDM0MS4xNjgsNjIyLjgzM0MzMzQuMTMyLDYzMC44NjcsMzIwLjA1OSw2NDYuOTMzLDI5OC44MzQsNjY1LjIwN0MyNzcuNjEsNjgzLjQ4MSwyNDkuMjM1LDcwMy45NjMsMjM1LjA0Nyw3MTQuMjAzTDIyMC44NTksNzI0LjQ0NCI+PC9wYXRoPjxwYXRoIG1hcmtlci1lbmQ9InVybCgjZ2VNZXJtYWlkT3V0cHV0LTE3NTMxMTM2NzY3MDZfY2xhc3MtZGVwZW5kZW5jeUVuZCkiIHN0eWxlPSI7IiBjbGFzcz0iZWRnZS10aGlja25lc3Mtbm9ybWFsIGVkZ2UtcGF0dGVybi1zb2xpZCByZWxhdGlvbiIgaWQ9ImlkX1dvb2RlbkRvb3JGYWN0b3J5X0NhcnBlbnRlcl84IiBkPSJNNTIzLjUxOSw2MTQuOEw1MzUuMjYsNjIyLjgzM0M1NDcuMDAyLDYzMC44NjcsNTcwLjQ4NSw2NDYuOTMzLDYwOC41NTcsNjY2LjAzMUM2NDYuNjI5LDY4NS4xMjgsNjk5LjI4OSw3MDcuMjU2LDcyNS42Miw3MTguMzJMNzUxLjk1LDcyOS4zODQiPjwvcGF0aD48cGF0aCBtYXJrZXItZW5kPSJ1cmwoI2dlTWVybWFpZE91dHB1dC0xNzUzMTEzNjc2NzA2X2NsYXNzLWRlcGVuZGVuY3lFbmQpIiBzdHlsZT0iOyIgY2xhc3M9ImVkZ2UtdGhpY2tuZXNzLW5vcm1hbCBlZGdlLXBhdHRlcm4tc29saWQgcmVsYXRpb24iIGlkPSJpZF9Jcm9uRG9vckZhY3RvcnlfSXJvbkRvb3JfOSIgZD0iTTc0MS4yNDQsNjE0LjhMNzI5LjUwMiw2MjIuODMzQzcxNy43NjEsNjMwLjg2Nyw2OTQuMjc3LDY0Ni45MzMsNjQ4Ljc3Niw2NjkuMTUzQzYwMy4yNzQsNjkxLjM3Miw1MzUuNzU0LDcxOS43NDQsNTAxLjk5NCw3MzMuOTNMNDY4LjIzNSw3NDguMTE2Ij48L3BhdGg+PHBhdGggbWFya2VyLWVuZD0idXJsKCNnZU1lcm1haWRPdXRwdXQtMTc1MzExMzY3NjcwNl9jbGFzcy1kZXBlbmRlbmN5RW5kKSIgc3R5bGU9IjsiIGNsYXNzPSJlZGdlLXRoaWNrbmVzcy1ub3JtYWwgZWRnZS1wYXR0ZXJuLXNvbGlkIHJlbGF0aW9uIiBpZD0iaWRfSXJvbkRvb3JGYWN0b3J5X1dlbGRlcl8xMCIgZD0iTTkzMC45NjQsNjE0LjhMOTM5LjU0Myw2MjIuODMzQzk0OC4xMjMsNjMwLjg2Nyw5NjUuMjgyLDY0Ni45MzMsOTg2LjcxNCw2NjMuMDA4QzEwMDguMTQ2LDY3OS4wODQsMTAzMy44NTIsNjk1LjE2NywxMDQ2LjcwNSw3MDMuMjA5TDEwNTkuNTU3LDcxMS4yNTEiPjwvcGF0aD48cGF0aCBtYXJrZXItZW5kPSJ1cmwoI2dlTWVybWFpZE91dHB1dC0xNzUzMTEzNjc2NzA2X2NsYXNzLWRlcGVuZGVuY3lFbmQpIiBzdHlsZT0iOyIgY2xhc3M9ImVkZ2UtdGhpY2tuZXNzLW5vcm1hbCBlZGdlLXBhdHRlcm4tc29saWQgcmVsYXRpb24iIGlkPSJpZF9BYnN0cmFjdEZhY3RvcnlEUF9Eb29yRmFjdG9yeV8xMSIgZD0iTTY5Ny4yMzcsMTM0TDY4Ni40MjcsMTQwLjAzM0M2NzUuNjE4LDE0Ni4wNjcsNjU0LDE1OC4xMzMsNjQzLjE5LDE2OS4yQzYzMi4zODEsMTgwLjI2Nyw2MzIuMzgxLDE5MC4zMzMsNjMyLjM4MSwxOTUuMzY3TDYzMi4zODEsMjAwLjQiPjwvcGF0aD48cGF0aCBtYXJrZXItZW5kPSJ1cmwoI2dlTWVybWFpZE91dHB1dC0xNzUzMTEzNjc2NzA2X2NsYXNzLWRlcGVuZGVuY3lFbmQpIiBzdHlsZT0iOyIgY2xhc3M9ImVkZ2UtdGhpY2tuZXNzLW5vcm1hbCBlZGdlLXBhdHRlcm4tc29saWQgcmVsYXRpb24iIGlkPSJpZF9BYnN0cmFjdEZhY3RvcnlEUF9Eb29yRml0dGluZ0V4cGVydF8xMiIgZD0iTTkyNy43NzgsMTAwLjQ2Mkw5NzQuMjAxLDExMi4wODVDMTAyMC42MjQsMTIzLjcwOCwxMTEzLjQ3LDE0Ni45NTQsMTE1OS44OTMsMTc5LjExQzEyMDYuMzE2LDIxMS4yNjcsMTIwNi4zMTYsMjUyLjMzMywxMjA2LjMxNiwyOTMuNEMxMjA2LjMxNiwzMzQuNDY3LDEyMDYuMzE2LDM3NS41MzMsMTIwNi4zMTYsNDAzLjFDMTIwNi4zMTYsNDMwLjY2NywxMjA2LjMxNiw0NDQuNzMzLDEyMDYuMzE2LDQ1MS43NjdMMTIwNi4zMTYsNDU4LjgiPjwvcGF0aD48L2c+PGcgY2xhc3M9ImVkZ2VMYWJlbHMiPjxnIHRyYW5zZm9ybT0idHJhbnNsYXRlKDUxLjg4NzUwMDc2MjkzOTQ1LCA2NjIuOTk5OTk5MDQ2MzI1NykiIGNsYXNzPSJlZGdlTGFiZWwiPjxnIHRyYW5zZm9ybT0idHJhbnNsYXRlKC00My44ODc1MDA3NjI5Mzk0NSwgLTExLjE5OTk5OTgwOTI2NTEzNykiIGNsYXNzPSJsYWJlbCI+PGc+PHJlY3QgaGVpZ2h0PSIyMi4zOTk5OTk2MTg1MzAyNzMiIHdpZHRoPSI4Ny43NzUwMDE1MjU4Nzg5IiB5PSItMS4xOTk5OTk5ODgwNzkwNzEiIHg9Ii0yIiBzdHlsZT0iO2Rpc3BsYXk6IGlubGluZS1ibG9jayIgY2xhc3M9ImJhY2tncm91bmQiPjwvcmVjdD48dGV4dCBzdHlsZT0iO2Rpc3BsYXk6IGlubGluZS1ibG9jayIgeT0iLTEwLjEiPjx0c3BhbiBkeT0iMS4xZW0iIHk9Ii0wLjFlbSIgeD0iMCIgY2xhc3M9InRleHQtb3V0ZXItdHNwYW4iPjx0c3BhbiBmb250LXdlaWdodD0ibm9ybWFsIiBjbGFzcz0idGV4dC1pbm5lci10c3BhbiIgZm9udC1zdHlsZT0ibm9ybWFsIj5pbXBsZW1lbnRzPC90c3Bhbj48L3RzcGFuPjwvdGV4dD48L2c+PC9nPjwvZz48ZyB0cmFuc2Zvcm09InRyYW5zbGF0ZSgyMTMuNjg1OTM2OTI3Nzk1NCwgNjYyLjk5OTk5OTA0NjMyNTcpIiBjbGFzcz0iZWRnZUxhYmVsIj48ZyB0cmFuc2Zvcm09InRyYW5zbGF0ZSgtNDMuODg3NTAwNzYyOTM5NDUsIC0xMS4xOTk5OTk4MDkyNjUxMzcpIiBjbGFzcz0ibGFiZWwiPjxnPjxyZWN0IGhlaWdodD0iMjIuMzk5OTk5NjE4NTMwMjczIiB3aWR0aD0iODcuNzc1MDAxNTI1ODc4OSIgeT0iLTEuMTk5OTk5OTg4MDc5MDcxIiB4PSItMiIgc3R5bGU9IjtkaXNwbGF5OiBpbmxpbmUtYmxvY2siIGNsYXNzPSJiYWNrZ3JvdW5kIj48L3JlY3Q+PHRleHQgc3R5bGU9IjtkaXNwbGF5OiBpbmxpbmUtYmxvY2siIHk9Ii0xMC4xIj48dHNwYW4gZHk9IjEuMWVtIiB5PSItMC4xZW0iIHg9IjAiIGNsYXNzPSJ0ZXh0LW91dGVyLXRzcGFuIj48dHNwYW4gZm9udC13ZWlnaHQ9Im5vcm1hbCIgY2xhc3M9InRleHQtaW5uZXItdHNwYW4iIGZvbnQtc3R5bGU9Im5vcm1hbCI+aW1wbGVtZW50czwvdHNwYW4+PC90c3Bhbj48L3RleHQ+PC9nPjwvZz48L2c+PGcgdHJhbnNmb3JtPSJ0cmFuc2xhdGUoMTA3NC43NDA2MjYzMzUxNDQsIDY2Mi45OTk5OTkwNDYzMjU3KSIgY2xhc3M9ImVkZ2VMYWJlbCI+PGcgdHJhbnNmb3JtPSJ0cmFuc2xhdGUoLTQzLjg4NzUwMDc2MjkzOTQ1LCAtMTEuMTk5OTk5ODA5MjY1MTM3KSIgY2xhc3M9ImxhYmVsIj48Zz48cmVjdCBoZWlnaHQ9IjIyLjM5OTk5OTYxODUzMDI3MyIgd2lkdGg9Ijg3Ljc3NTAwMTUyNTg3ODkiIHk9Ii0xLjE5OTk5OTk4ODA3OTA3MSIgeD0iLTIiIHN0eWxlPSI7ZGlzcGxheTogaW5saW5lLWJsb2NrIiBjbGFzcz0iYmFja2dyb3VuZCI+PC9yZWN0Pjx0ZXh0IHN0eWxlPSI7ZGlzcGxheTogaW5saW5lLWJsb2NrIiB5PSItMTAuMSI+PHRzcGFuIGR5PSIxLjFlbSIgeT0iLTAuMWVtIiB4PSIwIiBjbGFzcz0idGV4dC1vdXRlci10c3BhbiI+PHRzcGFuIGZvbnQtd2VpZ2h0PSJub3JtYWwiIGNsYXNzPSJ0ZXh0LWlubmVyLXRzcGFuIiBmb250LXN0eWxlPSJub3JtYWwiPmltcGxlbWVudHM8L3RzcGFuPjwvdHNwYW4+PC90ZXh0PjwvZz48L2c+PC9nPjxnIHRyYW5zZm9ybT0idHJhbnNsYXRlKDEyNjAuMjAzMTI4ODE0Njk3MywgNjYyLjk5OTk5OTA0NjMyNTcpIiBjbGFzcz0iZWRnZUxhYmVsIj48ZyB0cmFuc2Zvcm09InRyYW5zbGF0ZSgtNDMuODg3NTAwNzYyOTM5NDUsIC0xMS4xOTk5OTk4MDkyNjUxMzcpIiBjbGFzcz0ibGFiZWwiPjxnPjxyZWN0IGhlaWdodD0iMjIuMzk5OTk5NjE4NTMwMjczIiB3aWR0aD0iODcuNzc1MDAxNTI1ODc4OSIgeT0iLTEuMTk5OTk5OTg4MDc5MDcxIiB4PSItMiIgc3R5bGU9IjtkaXNwbGF5OiBpbmxpbmUtYmxvY2siIGNsYXNzPSJiYWNrZ3JvdW5kIj48L3JlY3Q+PHRleHQgc3R5bGU9IjtkaXNwbGF5OiBpbmxpbmUtYmxvY2siIHk9Ii0xMC4xIj48dHNwYW4gZHk9IjEuMWVtIiB5PSItMC4xZW0iIHg9IjAiIGNsYXNzPSJ0ZXh0LW91dGVyLXRzcGFuIj48dHNwYW4gZm9udC13ZWlnaHQ9Im5vcm1hbCIgY2xhc3M9InRleHQtaW5uZXItdHNwYW4iIGZvbnQtc3R5bGU9Im5vcm1hbCI+aW1wbGVtZW50czwvdHNwYW4+PC90c3Bhbj48L3RleHQ+PC9nPjwvZz48L2c+PGcgdHJhbnNmb3JtPSJ0cmFuc2xhdGUoNDEzLjg5Njg3MzQ3NDEyMTEsIDQxNi41OTk5OTk0Mjc3OTU0KSIgY2xhc3M9ImVkZ2VMYWJlbCI+PGcgdHJhbnNmb3JtPSJ0cmFuc2xhdGUoLTQzLjg4NzUwMDc2MjkzOTQ1LCAtMTEuMTk5OTk5ODA5MjY1MTM3KSIgY2xhc3M9ImxhYmVsIj48Zz48cmVjdCBoZWlnaHQ9IjIyLjM5OTk5OTYxODUzMDI3MyIgd2lkdGg9Ijg3Ljc3NTAwMTUyNTg3ODkiIHk9Ii0xLjE5OTk5OTk4ODA3OTA3MSIgeD0iLTIiIHN0eWxlPSI7ZGlzcGxheTogaW5saW5lLWJsb2NrIiBjbGFzcz0iYmFja2dyb3VuZCI+PC9yZWN0Pjx0ZXh0IHN0eWxlPSI7ZGlzcGxheTogaW5saW5lLWJsb2NrIiB5PSItMTAuMSI+PHRzcGFuIGR5PSIxLjFlbSIgeT0iLTAuMWVtIiB4PSIwIiBjbGFzcz0idGV4dC1vdXRlci10c3BhbiI+PHRzcGFuIGZvbnQtd2VpZ2h0PSJub3JtYWwiIGNsYXNzPSJ0ZXh0LWlubmVyLXRzcGFuIiBmb250LXN0eWxlPSJub3JtYWwiPmltcGxlbWVudHM8L3RzcGFuPjwvdHNwYW4+PC90ZXh0PjwvZz48L2c+PC9nPjxnIHRyYW5zZm9ybT0idHJhbnNsYXRlKDg1MC44NjU2MjM0NzQxMjExLCA0MTYuNTk5OTk5NDI3Nzk1NCkiIGNsYXNzPSJlZGdlTGFiZWwiPjxnIHRyYW5zZm9ybT0idHJhbnNsYXRlKC00My44ODc1MDA3NjI5Mzk0NSwgLTExLjE5OTk5OTgwOTI2NTEzNykiIGNsYXNzPSJsYWJlbCI+PGc+PHJlY3QgaGVpZ2h0PSIyMi4zOTk5OTk2MTg1MzAyNzMiIHdpZHRoPSI4Ny43NzUwMDE1MjU4Nzg5IiB5PSItMS4xOTk5OTk5ODgwNzkwNzEiIHg9Ii0yIiBzdHlsZT0iO2Rpc3BsYXk6IGlubGluZS1ibG9jayIgY2xhc3M9ImJhY2tncm91bmQiPjwvcmVjdD48dGV4dCBzdHlsZT0iO2Rpc3BsYXk6IGlubGluZS1ibG9jayIgeT0iLTEwLjEiPjx0c3BhbiBkeT0iMS4xZW0iIHk9Ii0wLjFlbSIgeD0iMCIgY2xhc3M9InRleHQtb3V0ZXItdHNwYW4iPjx0c3BhbiBmb250LXdlaWdodD0ibm9ybWFsIiBjbGFzcz0idGV4dC1pbm5lci10c3BhbiIgZm9udC1zdHlsZT0ibm9ybWFsIj5pbXBsZW1lbnRzPC90c3Bhbj48L3RzcGFuPjwvdGV4dD48L2c+PC9nPjwvZz48ZyB0cmFuc2Zvcm09InRyYW5zbGF0ZSgzMDUuOTg1OTM4MDcyMjA0NiwgNjYyLjk5OTk5OTA0NjMyNTcpIiBjbGFzcz0iZWRnZUxhYmVsIj48ZyB0cmFuc2Zvcm09InRyYW5zbGF0ZSgtMjguNDEyNTAwMzgxNDY5NzI3LCAtMTEuMTk5OTk5ODA5MjY1MTM3KSIgY2xhc3M9ImxhYmVsIj48Zz48cmVjdCBoZWlnaHQ9IjIyLjM5OTk5OTYxODUzMDI3MyIgd2lkdGg9IjU2LjgyNTAwMDc2MjkzOTQ1IiB5PSItMS4xOTk5OTk5ODgwNzkwNzEiIHg9Ii0yIiBzdHlsZT0iO2Rpc3BsYXk6IGlubGluZS1ibG9jayIgY2xhc3M9ImJhY2tncm91bmQiPjwvcmVjdD48dGV4dCBzdHlsZT0iO2Rpc3BsYXk6IGlubGluZS1ibG9jayIgeT0iLTEwLjEiPjx0c3BhbiBkeT0iMS4xZW0iIHk9Ii0wLjFlbSIgeD0iMCIgY2xhc3M9InRleHQtb3V0ZXItdHNwYW4iPjx0c3BhbiBmb250LXdlaWdodD0ibm9ybWFsIiBjbGFzcz0idGV4dC1pbm5lci10c3BhbiIgZm9udC1zdHlsZT0ibm9ybWFsIj5jcmVhdGVzPC90c3Bhbj48L3RzcGFuPjwvdGV4dD48L2c+PC9nPjwvZz48ZyB0cmFuc2Zvcm09InRyYW5zbGF0ZSg1OTMuOTY4NzQ4MDkyNjUxNCwgNjYyLjk5OTk5OTA0NjMyNTcpIiBjbGFzcz0iZWRnZUxhYmVsIj48ZyB0cmFuc2Zvcm09InRyYW5zbGF0ZSgtMjguNDEyNTAwMzgxNDY5NzI3LCAtMTEuMTk5OTk5ODA5MjY1MTM3KSIgY2xhc3M9ImxhYmVsIj48Zz48cmVjdCBoZWlnaHQ9IjIyLjM5OTk5OTYxODUzMDI3MyIgd2lkdGg9IjU2LjgyNTAwMDc2MjkzOTQ1IiB5PSItMS4xOTk5OTk5ODgwNzkwNzEiIHg9Ii0yIiBzdHlsZT0iO2Rpc3BsYXk6IGlubGluZS1ibG9jayIgY2xhc3M9ImJhY2tncm91bmQiPjwvcmVjdD48dGV4dCBzdHlsZT0iO2Rpc3BsYXk6IGlubGluZS1ibG9jayIgeT0iLTEwLjEiPjx0c3BhbiBkeT0iMS4xZW0iIHk9Ii0wLjFlbSIgeD0iMCIgY2xhc3M9InRleHQtb3V0ZXItdHNwYW4iPjx0c3BhbiBmb250LXdlaWdodD0ibm9ybWFsIiBjbGFzcz0idGV4dC1pbm5lci10c3BhbiIgZm9udC1zdHlsZT0ibm9ybWFsIj5jcmVhdGVzPC90c3Bhbj48L3RzcGFuPjwvdGV4dD48L2c+PC9nPjwvZz48ZyB0cmFuc2Zvcm09InRyYW5zbGF0ZSg2NzAuNzkzNzQ4ODU1NTkwOCwgNjYyLjk5OTk5OTA0NjMyNTcpIiBjbGFzcz0iZWRnZUxhYmVsIj48ZyB0cmFuc2Zvcm09InRyYW5zbGF0ZSgtMjguNDEyNTAwMzgxNDY5NzI3LCAtMTEuMTk5OTk5ODA5MjY1MTM3KSIgY2xhc3M9ImxhYmVsIj48Zz48cmVjdCBoZWlnaHQ9IjIyLjM5OTk5OTYxODUzMDI3MyIgd2lkdGg9IjU2LjgyNTAwMDc2MjkzOTQ1IiB5PSItMS4xOTk5OTk5ODgwNzkwNzEiIHg9Ii0yIiBzdHlsZT0iO2Rpc3BsYXk6IGlubGluZS1ibG9jayIgY2xhc3M9ImJhY2tncm91bmQiPjwvcmVjdD48dGV4dCBzdHlsZT0iO2Rpc3BsYXk6IGlubGluZS1ibG9jayIgeT0iLTEwLjEiPjx0c3BhbiBkeT0iMS4xZW0iIHk9Ii0wLjFlbSIgeD0iMCIgY2xhc3M9InRleHQtb3V0ZXItdHNwYW4iPjx0c3BhbiBmb250LXdlaWdodD0ibm9ybWFsIiBjbGFzcz0idGV4dC1pbm5lci10c3BhbiIgZm9udC1zdHlsZT0ibm9ybWFsIj5jcmVhdGVzPC90c3Bhbj48L3RzcGFuPjwvdGV4dD48L2c+PC9nPjwvZz48ZyB0cmFuc2Zvcm09InRyYW5zbGF0ZSg5ODIuNDQwNjI1MTkwNzM0OSwgNjYyLjk5OTk5OTA0NjMyNTcpIiBjbGFzcz0iZWRnZUxhYmVsIj48ZyB0cmFuc2Zvcm09InRyYW5zbGF0ZSgtMjguNDEyNTAwMzgxNDY5NzI3LCAtMTEuMTk5OTk5ODA5MjY1MTM3KSIgY2xhc3M9ImxhYmVsIj48Zz48cmVjdCBoZWlnaHQ9IjIyLjM5OTk5OTYxODUzMDI3MyIgd2lkdGg9IjU2LjgyNTAwMDc2MjkzOTQ1IiB5PSItMS4xOTk5OTk5ODgwNzkwNzEiIHg9Ii0yIiBzdHlsZT0iO2Rpc3BsYXk6IGlubGluZS1ibG9jayIgY2xhc3M9ImJhY2tncm91bmQiPjwvcmVjdD48dGV4dCBzdHlsZT0iO2Rpc3BsYXk6IGlubGluZS1ibG9jayIgeT0iLTEwLjEiPjx0c3BhbiBkeT0iMS4xZW0iIHk9Ii0wLjFlbSIgeD0iMCIgY2xhc3M9InRleHQtb3V0ZXItdHNwYW4iPjx0c3BhbiBmb250LXdlaWdodD0ibm9ybWFsIiBjbGFzcz0idGV4dC1pbm5lci10c3BhbiIgZm9udC1zdHlsZT0ibm9ybWFsIj5jcmVhdGVzPC90c3Bhbj48L3RzcGFuPjwvdGV4dD48L2c+PC9nPjwvZz48ZyB0cmFuc2Zvcm09InRyYW5zbGF0ZSg2MzIuMzgxMjQ4NDc0MTIxMSwgMTcwLjE5OTk5OTgwOTI2NTE0KSIgY2xhc3M9ImVkZ2VMYWJlbCI+PGcgdHJhbnNmb3JtPSJ0cmFuc2xhdGUoLTE3LjIxMjQ5OTYxODUzMDI3MywgLTExLjE5OTk5OTgwOTI2NTEzNykiIGNsYXNzPSJsYWJlbCI+PGc+PHJlY3QgaGVpZ2h0PSIyMi4zOTk5OTk2MTg1MzAyNzMiIHdpZHRoPSIzNC40MjUwMDExNDQ0MDkxOCIgeT0iLTEuMTk5OTk5OTg4MDc5MDcxIiB4PSItMiIgc3R5bGU9IjtkaXNwbGF5OiBpbmxpbmUtYmxvY2siIGNsYXNzPSJiYWNrZ3JvdW5kIj48L3JlY3Q+PHRleHQgc3R5bGU9IjtkaXNwbGF5OiBpbmxpbmUtYmxvY2siIHk9Ii0xMC4xIj48dHNwYW4gZHk9IjEuMWVtIiB5PSItMC4xZW0iIHg9IjAiIGNsYXNzPSJ0ZXh0LW91dGVyLXRzcGFuIj48dHNwYW4gZm9udC13ZWlnaHQ9Im5vcm1hbCIgY2xhc3M9InRleHQtaW5uZXItdHNwYW4iIGZvbnQtc3R5bGU9Im5vcm1hbCI+dXNlczwvdHNwYW4+PC90c3Bhbj48L3RleHQ+PC9nPjwvZz48L2c+PGcgdHJhbnNmb3JtPSJ0cmFuc2xhdGUoMTIwNi4zMTU2MjgwNTE3NTc4LCAyOTMuMzk5OTk5NjE4NTMwMykiIGNsYXNzPSJlZGdlTGFiZWwiPjxnIHRyYW5zZm9ybT0idHJhbnNsYXRlKC0xNy4yMTI0OTk2MTg1MzAyNzMsIC0xMS4xOTk5OTk4MDkyNjUxMzcpIiBjbGFzcz0ibGFiZWwiPjxnPjxyZWN0IGhlaWdodD0iMjIuMzk5OTk5NjE4NTMwMjczIiB3aWR0aD0iMzQuNDI1MDAxMTQ0NDA5MTgiIHk9Ii0xLjE5OTk5OTk4ODA3OTA3MSIgeD0iLTIiIHN0eWxlPSI7ZGlzcGxheTogaW5saW5lLWJsb2NrIiBjbGFzcz0iYmFja2dyb3VuZCI+PC9yZWN0Pjx0ZXh0IHN0eWxlPSI7ZGlzcGxheTogaW5saW5lLWJsb2NrIiB5PSItMTAuMSI+PHRzcGFuIGR5PSIxLjFlbSIgeT0iLTAuMWVtIiB4PSIwIiBjbGFzcz0idGV4dC1vdXRlci10c3BhbiI+PHRzcGFuIGZvbnQtd2VpZ2h0PSJub3JtYWwiIGNsYXNzPSJ0ZXh0LWlubmVyLXRzcGFuIiBmb250LXN0eWxlPSJub3JtYWwiPnVzZXM8L3RzcGFuPjwvdHNwYW4+PC90ZXh0PjwvZz48L2c+PC9nPjwvZz48ZyBjbGFzcz0ibm9kZXMiPjxnIHRyYW5zZm9ybT0idHJhbnNsYXRlKDEwNS43NzUwMDE1MjU4Nzg5LCA1MzkuNzk5OTk5MjM3MDYwNSkiIGlkPSJjbGFzc0lkLURvb3ItMCIgY2xhc3M9Im5vZGUgZGVmYXVsdCI+PGcgY2xhc3M9ImJhc2ljIGxhYmVsLWNvbnRhaW5lciI+PHBhdGggc3R5bGU9IiIgZmlsbD0iI2VlZSIgc3Ryb2tlLXdpZHRoPSIwIiBzdHJva2U9Im5vbmUiIGQ9Ik0tNjAuODc1IC04NyBMNjAuODc1IC04NyBMNjAuODc1IDg3IEwtNjAuODc1IDg3Ij48L3BhdGg+PHBhdGggc3R5bGU9IiIgZmlsbD0ibm9uZSIgc3Ryb2tlLXdpZHRoPSIxLjMiIHN0cm9rZT0iIzk5OSIgZD0iTS02MC44NzUgLTg3IEMtMjYuMTI4MDE0MjIzNjc4NTcgLTg3LCA4LjYxODk3MTU1MjY0Mjg2MSAtODcsIDYwLjg3NSAtODcgTS02MC44NzUgLTg3IEMtMzIuMzIxNDA5MzI0Njg2OTcgLTg3LCAtMy43Njc4MTg2NDkzNzM5NDMgLTg3LCA2MC44NzUgLTg3IE02MC44NzUgLTg3IEM2MC44NzUgLTE5LjA2OTQ2ODU4MjI4Nzg0LCA2MC44NzUgNDguODYxMDYyODM1NDI0MzIsIDYwLjg3NSA4NyBNNjAuODc1IC04NyBDNjAuODc1IC0zMS4zMjA3MzgxOTU2MzEyNTcsIDYwLjg3NSAyNC4zNTg1MjM2MDg3Mzc0ODUsIDYwLjg3NSA4NyBNNjAuODc1IDg3IEMyMi4yMDg0MDM5NDA0MjA5MjIgODcsIC0xNi40NTgxOTIxMTkxNTgxNTYgODcsIC02MC44NzUgODcgTTYwLjg3NSA4NyBDMjkuNDUwODczMjk3NzE5MTY2IDg3LCAtMS45NzMyNTM0MDQ1NjE2Njc0IDg3LCAtNjAuODc1IDg3IE0tNjAuODc1IDg3IEMtNjAuODc1IDQ5Ljg5NzE2NTQ1MDg0NTE2LCAtNjAuODc1IDEyLjc5NDMzMDkwMTY5MDMxNiwgLTYwLjg3NSAtODcgTS02MC44NzUgODcgQy02MC44NzUgNDMuNTkzNzQyOTgzNzg0MDMsIC02MC44NzUgMC4xODc0ODU5Njc1NjgwNjUzNSwgLTYwLjg3NSAtODciPjwvcGF0aD48L2c+PGcgdHJhbnNmb3JtPSJ0cmFuc2xhdGUoLTQxLjE3NDk5OTIzNzA2MDU1LCAtNjMpIiBjbGFzcz0iYW5ub3RhdGlvbi1ncm91cCB0ZXh0Ij48ZyB0cmFuc2Zvcm09InRyYW5zbGF0ZSgwLC0xMikiIHN0eWxlPSIiIGNsYXNzPSJsYWJlbCI+PGZvcmVpZ25PYmplY3QgaGVpZ2h0PSIyNCIgd2lkdGg9IjgyLjM0OTk5ODQ3NDEyMTEiPjxkaXYgc3R5bGU9ImRpc3BsYXk6IHRhYmxlLWNlbGw7IHdoaXRlLXNwYWNlOiBub3dyYXA7IGxpbmUtaGVpZ2h0OiAxLjU7IG1heC13aWR0aDogMTI3cHg7IHRleHQtYWxpZ246IGNlbnRlcjsiIHhtbG5zPSJodHRwOi8vd3d3LnczLm9yZy8xOTk5L3hodG1sIj48c3BhbiBzdHlsZT0iIiBjbGFzcz0ibm9kZUxhYmVsIG1hcmtkb3duLW5vZGUtbGFiZWwiPjxwPsKraW50ZXJmYWNlwrs8L3A+PC9zcGFuPjwvZGl2PjwvZm9yZWlnbk9iamVjdD48L2c+PC9nPjxnIHRyYW5zZm9ybT0idHJhbnNsYXRlKC0xNy42MTg3NDk2MTg1MzAyNzMsIC0zOSkiIGNsYXNzPSJsYWJlbC1ncm91cCB0ZXh0Ij48ZyB0cmFuc2Zvcm09InRyYW5zbGF0ZSgwLC0xMikiIHN0eWxlPSJmb250LXdlaWdodDogYm9sZGVyIiBjbGFzcz0ibGFiZWwiPjxmb3JlaWduT2JqZWN0IGhlaWdodD0iMjQiIHdpZHRoPSIzNS4yMzc0OTkyMzcwNjA1NSI+PGRpdiBzdHlsZT0iZGlzcGxheTogdGFibGUtY2VsbDsgd2hpdGUtc3BhY2U6IG5vd3JhcDsgbGluZS1oZWlnaHQ6IDEuNTsgbWF4LXdpZHRoOiA4NnB4OyB0ZXh0LWFsaWduOiBjZW50ZXI7IiB4bWxucz0iaHR0cDovL3d3dy53My5vcmcvMTk5OS94aHRtbCI+PHNwYW4gc3R5bGU9IiIgY2xhc3M9Im5vZGVMYWJlbCBtYXJrZG93bi1ub2RlLWxhYmVsIj48cD5Eb29yPC9wPjwvc3Bhbj48L2Rpdj48L2ZvcmVpZ25PYmplY3Q+PC9nPjwvZz48ZyB0cmFuc2Zvcm09InRyYW5zbGF0ZSgtNDguODc1LCA5KSIgY2xhc3M9Im1lbWJlcnMtZ3JvdXAgdGV4dCI+PC9nPjxnIHRyYW5zZm9ybT0idHJhbnNsYXRlKC00OC44NzUsIDM5KSIgY2xhc3M9Im1ldGhvZHMtZ3JvdXAgdGV4dCI+PGcgdHJhbnNmb3JtPSJ0cmFuc2xhdGUoMCwtMTIpIiBzdHlsZT0iIiBjbGFzcz0ibGFiZWwiPjxmb3JlaWduT2JqZWN0IGhlaWdodD0iMjQiIHdpZHRoPSI1NS4xMTI0OTkyMzcwNjA1NSI+PGRpdiBzdHlsZT0iZGlzcGxheTogdGFibGUtY2VsbDsgd2hpdGUtc3BhY2U6IG5vd3JhcDsgbGluZS1oZWlnaHQ6IDEuNTsgbWF4LXdpZHRoOiAxMTRweDsgdGV4dC1hbGlnbjogY2VudGVyOyIgeG1sbnM9Imh0dHA6Ly93d3cudzMub3JnLzE5OTkveGh0bWwiPjxzcGFuIHN0eWxlPSIiIGNsYXNzPSJub2RlTGFiZWwgbWFya2Rvd24tbm9kZS1sYWJlbCI+PHA+K29wZW4oKTwvcD48L3NwYW4+PC9kaXY+PC9mb3JlaWduT2JqZWN0PjwvZz48ZyB0cmFuc2Zvcm09InRyYW5zbGF0ZSgwLDEyKSIgc3R5bGU9IiIgY2xhc3M9ImxhYmVsIj48Zm9yZWlnbk9iamVjdCBoZWlnaHQ9IjI0IiB3aWR0aD0iNTYuNTc1MDAwNzYyOTM5NDUiPjxkaXYgc3R5bGU9ImRpc3BsYXk6IHRhYmxlLWNlbGw7IHdoaXRlLXNwYWNlOiBub3dyYXA7IGxpbmUtaGVpZ2h0OiAxLjU7IG1heC13aWR0aDogMTEzcHg7IHRleHQtYWxpZ246IGNlbnRlcjsiIHhtbG5zPSJodHRwOi8vd3d3LnczLm9yZy8xOTk5L3hodG1sIj48c3BhbiBzdHlsZT0iIiBjbGFzcz0ibm9kZUxhYmVsIG1hcmtkb3duLW5vZGUtbGFiZWwiPjxwPitjbG9zZSgpPC9wPjwvc3Bhbj48L2Rpdj48L2ZvcmVpZ25PYmplY3Q+PC9nPjwvZz48ZyBzdHlsZT0iIiBjbGFzcz0iZGl2aWRlciI+PHBhdGggc3R5bGU9IiIgZmlsbD0ibm9uZSIgc3Ryb2tlLXdpZHRoPSIxLjMiIHN0cm9rZT0iIzk5OSIgZD0iTS02MC44NzUgLTE1IEMtMjAuNTg2NDY1NzcxNTY5MzM3IC0xNSwgMTkuNzAyMDY4NDU2ODYxMzI2IC0xNSwgNjAuODc1IC0xNSBNLTYwLjg3NSAtMTUgQy0xNS40NzExMjM5OTQ0MTcwNDIgLTE1LCAyOS45MzI3NTIwMTExNjU5MTcgLTE1LCA2MC44NzUgLTE1Ij48L3BhdGg+PC9nPjxnIHN0eWxlPSIiIGNsYXNzPSJkaXZpZGVyIj48cGF0aCBzdHlsZT0iIiBmaWxsPSJub25lIiBzdHJva2Utd2lkdGg9IjEuMyIgc3Ryb2tlPSIjOTk5IiBkPSJNLTYwLjg3NSA5IEMtMzUuMzU1NDk4NTk3NTIxNDA0IDksIC05LjgzNTk5NzE5NTA0MjggOSwgNjAuODc1IDkgTS02MC44NzUgOSBDLTI1LjY1MTg0MTIxMTQ2ODUzIDksIDkuNTcxMzE3NTc3MDYyOTQyIDksIDYwLjg3NSA5Ij48L3BhdGg+PC9nPjwvZz48ZyB0cmFuc2Zvcm09InRyYW5zbGF0ZSgxMjA2LjMxNTYyODA1MTc1NzgsIDUzOS43OTk5OTkyMzcwNjA1KSIgaWQ9ImNsYXNzSWQtRG9vckZpdHRpbmdFeHBlcnQtMSIgY2xhc3M9Im5vZGUgZGVmYXVsdCI+PGcgY2xhc3M9ImJhc2ljIGxhYmVsLWNvbnRhaW5lciI+PHBhdGggc3R5bGU9IiIgZmlsbD0iI2VlZSIgc3Ryb2tlLXdpZHRoPSIwIiBzdHJva2U9Im5vbmUiIGQ9Ik0tMTE1LjcyODEyNjUyNTg3ODkgLTc1IEwxMTUuNzI4MTI2NTI1ODc4OSAtNzUgTDExNS43MjgxMjY1MjU4Nzg5IDc1IEwtMTE1LjcyODEyNjUyNTg3ODkgNzUiPjwvcGF0aD48cGF0aCBzdHlsZT0iIiBmaWxsPSJub25lIiBzdHJva2Utd2lkdGg9IjEuMyIgc3Ryb2tlPSIjOTk5IiBkPSJNLTExNS43MjgxMjY1MjU4Nzg5IC03NSBDLTM5Ljc3NTQxMDA0MTk4MDAxIC03NSwgMzYuMTc3MzA2NDQxOTE4ODkgLTc1LCAxMTUuNzI4MTI2NTI1ODc4OSAtNzUgTS0xMTUuNzI4MTI2NTI1ODc4OSAtNzUgQy02Ni40NTcyNjMzNjEyOTQgLTc1LCAtMTcuMTg2NDAwMTk2NzA5MDczIC03NSwgMTE1LjcyODEyNjUyNTg3ODkgLTc1IE0xMTUuNzI4MTI2NTI1ODc4OSAtNzUgQzExNS43MjgxMjY1MjU4Nzg5IC00NC4yMzg3Mzg5MTkyNTAxNCwgMTE1LjcyODEyNjUyNTg3ODkgLTEzLjQ3NzQ3NzgzODUwMDI3LCAxMTUuNzI4MTI2NTI1ODc4OSA3NSBNMTE1LjcyODEyNjUyNTg3ODkgLTc1IEMxMTUuNzI4MTI2NTI1ODc4OSAtNDEuODU0OTI0Njg1MzA5MSwgMTE1LjcyODEyNjUyNTg3ODkgLTguNzA5ODQ5MzcwNjE4MjAxLCAxMTUuNzI4MTI2NTI1ODc4OSA3NSBNMTE1LjcyODEyNjUyNTg3ODkgNzUgQzI5Ljk0NTQwNDIyMDY5OTIzIDc1LCAtNTUuODM3MzE4MDg0NDgwNDQ0IDc1LCAtMTE1LjcyODEyNjUyNTg3ODkgNzUgTTExNS43MjgxMjY1MjU4Nzg5IDc1IEM1Ny4wNTYzNzY4OTIxMzgyOTYgNzUsIC0xLjYxNTM3Mjc0MTYwMjMxNDUgNzUsIC0xMTUuNzI4MTI2NTI1ODc4OSA3NSBNLTExNS43MjgxMjY1MjU4Nzg5IDc1IEMtMTE1LjcyODEyNjUyNTg3ODkgMjcuNzI1NTQxNjgwMjQ4NDI2LCAtMTE1LjcyODEyNjUyNTg3ODkgLTE5LjU0ODkxNjYzOTUwMzE0OCwgLTExNS43MjgxMjY1MjU4Nzg5IC03NSBNLTExNS43MjgxMjY1MjU4Nzg5IDc1IEMtMTE1LjcyODEyNjUyNTg3ODkgMjkuNjAxNzU1NzQwNzEwODIsIC0xMTUuNzI4MTI2NTI1ODc4OSAtMTUuNzk2NDg4NTE4NTc4MzU3LCAtMTE1LjcyODEyNjUyNTg3ODkgLTc1Ij48L3BhdGg+PC9nPjxnIHRyYW5zZm9ybT0idHJhbnNsYXRlKC00MS4xNzQ5OTkyMzcwNjA1NSwgLTUxKSIgY2xhc3M9ImFubm90YXRpb24tZ3JvdXAgdGV4dCI+PGcgdHJhbnNmb3JtPSJ0cmFuc2xhdGUoMCwtMTIpIiBzdHlsZT0iIiBjbGFzcz0ibGFiZWwiPjxmb3JlaWduT2JqZWN0IGhlaWdodD0iMjQiIHdpZHRoPSI4Mi4zNDk5OTg0NzQxMjExIj48ZGl2IHN0eWxlPSJkaXNwbGF5OiB0YWJsZS1jZWxsOyB3aGl0ZS1zcGFjZTogbm93cmFwOyBsaW5lLWhlaWdodDogMS41OyBtYXgtd2lkdGg6IDEyN3B4OyB0ZXh0LWFsaWduOiBjZW50ZXI7IiB4bWxucz0iaHR0cDovL3d3dy53My5vcmcvMTk5OS94aHRtbCI+PHNwYW4gc3R5bGU9IiIgY2xhc3M9Im5vZGVMYWJlbCBtYXJrZG93bi1ub2RlLWxhYmVsIj48cD7Cq2ludGVyZmFjZcK7PC9wPjwvc3Bhbj48L2Rpdj48L2ZvcmVpZ25PYmplY3Q+PC9nPjwvZz48ZyB0cmFuc2Zvcm09InRyYW5zbGF0ZSgtNjYuOTU2MjUzMDUxNzU3ODEsIC0yNykiIGNsYXNzPSJsYWJlbC1ncm91cCB0ZXh0Ij48ZyB0cmFuc2Zvcm09InRyYW5zbGF0ZSgwLC0xMikiIHN0eWxlPSJmb250LXdlaWdodDogYm9sZGVyIiBjbGFzcz0ibGFiZWwiPjxmb3JlaWduT2JqZWN0IGhlaWdodD0iMjQiIHdpZHRoPSIxMzMuOTEyNTA2MTAzNTE1NjIiPjxkaXYgc3R5bGU9ImRpc3BsYXk6IHRhYmxlLWNlbGw7IHdoaXRlLXNwYWNlOiBub3dyYXA7IGxpbmUtaGVpZ2h0OiAxLjU7IG1heC13aWR0aDogMTc1cHg7IHRleHQtYWxpZ246IGNlbnRlcjsiIHhtbG5zPSJodHRwOi8vd3d3LnczLm9yZy8xOTk5L3hodG1sIj48c3BhbiBzdHlsZT0iIiBjbGFzcz0ibm9kZUxhYmVsIG1hcmtkb3duLW5vZGUtbGFiZWwiPjxwPkRvb3JGaXR0aW5nRXhwZXJ0PC9wPjwvc3Bhbj48L2Rpdj48L2ZvcmVpZ25PYmplY3Q+PC9nPjwvZz48ZyB0cmFuc2Zvcm09InRyYW5zbGF0ZSgtMTAzLjcyODEyNjUyNTg3ODksIDIxKSIgY2xhc3M9Im1lbWJlcnMtZ3JvdXAgdGV4dCI+PC9nPjxnIHRyYW5zZm9ybT0idHJhbnNsYXRlKC0xMDMuNzI4MTI2NTI1ODc4OSwgNTEpIiBjbGFzcz0ibWV0aG9kcy1ncm91cCB0ZXh0Ij48ZyB0cmFuc2Zvcm09InRyYW5zbGF0ZSgwLC0xMikiIHN0eWxlPSIiIGNsYXNzPSJsYWJlbCI+PGZvcmVpZ25PYmplY3QgaGVpZ2h0PSIyNCIgd2lkdGg9IjE0MC41Ij48ZGl2IHN0eWxlPSJkaXNwbGF5OiB0YWJsZS1jZWxsOyB3aGl0ZS1zcGFjZTogbm93cmFwOyBsaW5lLWhlaWdodDogMS41OyBtYXgtd2lkdGg6IDIwMXB4OyB0ZXh0LWFsaWduOiBjZW50ZXI7IiB4bWxucz0iaHR0cDovL3d3dy53My5vcmcvMTk5OS94aHRtbCI+PHNwYW4gc3R5bGU9IiIgY2xhc3M9Im5vZGVMYWJlbCBtYXJrZG93bi1ub2RlLWxhYmVsIj48cD4rZml0RG9vcihEb29yIGRvb3IpPC9wPjwvc3Bhbj48L2Rpdj48L2ZvcmVpZ25PYmplY3Q+PC9nPjwvZz48ZyBzdHlsZT0iIiBjbGFzcz0iZGl2aWRlciI+PHBhdGggc3R5bGU9IiIgZmlsbD0ibm9uZSIgc3Ryb2tlLXdpZHRoPSIxLjMiIHN0cm9rZT0iIzk5OSIgZD0iTS0xMTUuNzI4MTI2NTI1ODc4OSAtMyBDLTM5LjE1NTE5MDg0MDg3NTMyIC0zLCAzNy40MTc3NDQ4NDQxMjgyNjUgLTMsIDExNS43MjgxMjY1MjU4Nzg5IC0zIE0tMTE1LjcyODEyNjUyNTg3ODkgLTMgQy01NS42ODA3Njg3MjkwOTMwNiAtMywgNC4zNjY1ODkwNjc2OTI3ODYgLTMsIDExNS43MjgxMjY1MjU4Nzg5IC0zIj48L3BhdGg+PC9nPjxnIHN0eWxlPSIiIGNsYXNzPSJkaXZpZGVyIj48cGF0aCBzdHlsZT0iIiBmaWxsPSJub25lIiBzdHJva2Utd2lkdGg9IjEuMyIgc3Ryb2tlPSIjOTk5IiBkPSJNLTExNS43MjgxMjY1MjU4Nzg5IDIxIEMtNjkuMzc1MTI3NzQ2NTI5NyAyMSwgLTIzLjAyMjEyODk2NzE4MDQ4IDIxLCAxMTUuNzI4MTI2NTI1ODc4OSAyMSBNLTExNS43MjgxMjY1MjU4Nzg5IDIxIEMtMzIuODM2NDIzMDM0NDQwMzE1IDIxLCA1MC4wNTUyODA0NTY5OTgyNzUgMjEsIDExNS43MjgxMjY1MjU4Nzg5IDIxIj48L3BhdGg+PC9nPjwvZz48ZyB0cmFuc2Zvcm09InRyYW5zbGF0ZSg2MzIuMzgxMjQ4NDc0MTIxMSwgMjkzLjM5OTk5OTYxODUzMDMpIiBpZD0iY2xhc3NJZC1Eb29yRmFjdG9yeS0yIiBjbGFzcz0ibm9kZSBkZWZhdWx0Ij48ZyBjbGFzcz0iYmFzaWMgbGFiZWwtY29udGFpbmVyIj48cGF0aCBzdHlsZT0iIiBmaWxsPSIjZWVlIiBzdHJva2Utd2lkdGg9IjAiIHN0cm9rZT0ibm9uZSIgZD0iTS0xODIuMjc0OTkzODk2NDg0MzggLTg3IEwxODIuMjc0OTkzODk2NDg0MzggLTg3IEwxODIuMjc0OTkzODk2NDg0MzggODcgTC0xODIuMjc0OTkzODk2NDg0MzggODciPjwvcGF0aD48cGF0aCBzdHlsZT0iIiBmaWxsPSJub25lIiBzdHJva2Utd2lkdGg9IjEuMyIgc3Ryb2tlPSIjOTk5IiBkPSJNLTE4Mi4yNzQ5OTM4OTY0ODQzOCAtODcgQy02My41NTI3NjU0NTU0MDA5IC04NywgNTUuMTY5NDYyOTg1NjgyNTcgLTg3LCAxODIuMjc0OTkzODk2NDg0MzggLTg3IE0tMTgyLjI3NDk5Mzg5NjQ4NDM4IC04NyBDLTc5Ljc5NjYyMTEzMDU5OTY1IC04NywgMjIuNjgxNzUxNjM1Mjg1MDggLTg3LCAxODIuMjc0OTkzODk2NDg0MzggLTg3IE0xODIuMjc0OTkzODk2NDg0MzggLTg3IEMxODIuMjc0OTkzODk2NDg0MzggLTI5LjAwNTkyNDQzOTU2MTY5NiwgMTgyLjI3NDk5Mzg5NjQ4NDM4IDI4Ljk4ODE1MTEyMDg3NjYxLCAxODIuMjc0OTkzODk2NDg0MzggODcgTTE4Mi4yNzQ5OTM4OTY0ODQzOCAtODcgQzE4Mi4yNzQ5OTM4OTY0ODQzOCAtMjMuMTMyMDk5MDExODcwMTI1LCAxODIuMjc0OTkzODk2NDg0MzggNDAuNzM1ODAxOTc2MjU5NzUsIDE4Mi4yNzQ5OTM4OTY0ODQzOCA4NyBNMTgyLjI3NDk5Mzg5NjQ4NDM4IDg3IEM3My42ODE4NjcwOTIyNjQwMSA4NywgLTM0LjkxMTI1OTcxMTk1NjM1IDg3LCAtMTgyLjI3NDk5Mzg5NjQ4NDM4IDg3IE0xODIuMjc0OTkzODk2NDg0MzggODcgQzk5LjY5Njc1MzM2ODA0NDYgODcsIDE3LjExODUxMjgzOTYwNDgyIDg3LCAtMTgyLjI3NDk5Mzg5NjQ4NDM4IDg3IE0tMTgyLjI3NDk5Mzg5NjQ4NDM4IDg3IEMtMTgyLjI3NDk5Mzg5NjQ4NDM4IDM5LjA5Nzk4NTAzOTM3NDM2LCAtMTgyLjI3NDk5Mzg5NjQ4NDM4IC04LjgwNDAyOTkyMTI1MTI4NSwgLTE4Mi4yNzQ5OTM4OTY0ODQzOCAtODcgTS0xODIuMjc0OTkzODk2NDg0MzggODcgQy0xODIuMjc0OTkzODk2NDg0MzggMTcuNjU4MjEwNDEzODE1OTkzLCAtMTgyLjI3NDk5Mzg5NjQ4NDM4IC01MS42ODM1NzkxNzIzNjgwMSwgLTE4Mi4yNzQ5OTM4OTY0ODQzOCAtODciPjwvcGF0aD48L2c+PGcgdHJhbnNmb3JtPSJ0cmFuc2xhdGUoLTQxLjE3NDk5OTIzNzA2MDU1LCAtNjMpIiBjbGFzcz0iYW5ub3RhdGlvbi1ncm91cCB0ZXh0Ij48ZyB0cmFuc2Zvcm09InRyYW5zbGF0ZSgwLC0xMikiIHN0eWxlPSIiIGNsYXNzPSJsYWJlbCI+PGZvcmVpZ25PYmplY3QgaGVpZ2h0PSIyNCIgd2lkdGg9IjgyLjM0OTk5ODQ3NDEyMTEiPjxkaXYgc3R5bGU9ImRpc3BsYXk6IHRhYmxlLWNlbGw7IHdoaXRlLXNwYWNlOiBub3dyYXA7IGxpbmUtaGVpZ2h0OiAxLjU7IG1heC13aWR0aDogMTI3cHg7IHRleHQtYWxpZ246IGNlbnRlcjsiIHhtbG5zPSJodHRwOi8vd3d3LnczLm9yZy8xOTk5L3hodG1sIj48c3BhbiBzdHlsZT0iIiBjbGFzcz0ibm9kZUxhYmVsIG1hcmtkb3duLW5vZGUtbGFiZWwiPjxwPsKraW50ZXJmYWNlwrs8L3A+PC9zcGFuPjwvZGl2PjwvZm9yZWlnbk9iamVjdD48L2c+PC9nPjxnIHRyYW5zZm9ybT0idHJhbnNsYXRlKC00NS42NTAwMDE1MjU4Nzg5MDYsIC0zOSkiIGNsYXNzPSJsYWJlbC1ncm91cCB0ZXh0Ij48ZyB0cmFuc2Zvcm09InRyYW5zbGF0ZSgwLC0xMikiIHN0eWxlPSJmb250LXdlaWdodDogYm9sZGVyIiBjbGFzcz0ibGFiZWwiPjxmb3JlaWduT2JqZWN0IGhlaWdodD0iMjQiIHdpZHRoPSI5MS4zMDAwMDMwNTE3NTc4MSI+PGRpdiBzdHlsZT0iZGlzcGxheTogdGFibGUtY2VsbDsgd2hpdGUtc3BhY2U6IG5vd3JhcDsgbGluZS1oZWlnaHQ6IDEuNTsgbWF4LXdpZHRoOiAxMzdweDsgdGV4dC1hbGlnbjogY2VudGVyOyIgeG1sbnM9Imh0dHA6Ly93d3cudzMub3JnLzE5OTkveGh0bWwiPjxzcGFuIHN0eWxlPSIiIGNsYXNzPSJub2RlTGFiZWwgbWFya2Rvd24tbm9kZS1sYWJlbCI+PHA+RG9vckZhY3Rvcnk8L3A+PC9zcGFuPjwvZGl2PjwvZm9yZWlnbk9iamVjdD48L2c+PC9nPjxnIHRyYW5zZm9ybT0idHJhbnNsYXRlKC0xNzAuMjc0OTkzODk2NDg0MzgsIDkpIiBjbGFzcz0ibWVtYmVycy1ncm91cCB0ZXh0Ij48L2c+PGcgdHJhbnNmb3JtPSJ0cmFuc2xhdGUoLTE3MC4yNzQ5OTM4OTY0ODQzOCwgMzkpIiBjbGFzcz0ibWV0aG9kcy1ncm91cCB0ZXh0Ij48ZyB0cmFuc2Zvcm09InRyYW5zbGF0ZSgwLC0xMikiIHN0eWxlPSIiIGNsYXNzPSJsYWJlbCI+PGZvcmVpZ25PYmplY3QgaGVpZ2h0PSIyNCIgd2lkdGg9IjE0MC41NTAwMDMwNTE3NTc4Ij48ZGl2IHN0eWxlPSJkaXNwbGF5OiB0YWJsZS1jZWxsOyB3aGl0ZS1zcGFjZTogbm93cmFwOyBsaW5lLWhlaWdodDogMS41OyBtYXgtd2lkdGg6IDIwMHB4OyB0ZXh0LWFsaWduOiBjZW50ZXI7IiB4bWxucz0iaHR0cDovL3d3dy53My5vcmcvMTk5OS94aHRtbCI+PHNwYW4gc3R5bGU9IiIgY2xhc3M9Im5vZGVMYWJlbCBtYXJrZG93bi1ub2RlLWxhYmVsIj48cD4rbWFrZURvb3IoKSA6IERvb3I8L3A+PC9zcGFuPjwvZGl2PjwvZm9yZWlnbk9iamVjdD48L2c+PGcgdHJhbnNmb3JtPSJ0cmFuc2xhdGUoMCwxMikiIHN0eWxlPSIiIGNsYXNzPSJsYWJlbCI+PGZvcmVpZ25PYmplY3QgaGVpZ2h0PSIyNCIgd2lkdGg9IjI5NC44OTk5OTM4OTY0ODQ0Ij48ZGl2IHN0eWxlPSJkaXNwbGF5OiB0YWJsZS1jZWxsOyB3aGl0ZS1zcGFjZTogbm93cmFwOyBsaW5lLWhlaWdodDogMS41OyBtYXgtd2lkdGg6IDM0MnB4OyB0ZXh0LWFsaWduOiBjZW50ZXI7IiB4bWxucz0iaHR0cDovL3d3dy53My5vcmcvMTk5OS94aHRtbCI+PHNwYW4gc3R5bGU9IiIgY2xhc3M9Im5vZGVMYWJlbCBtYXJrZG93bi1ub2RlLWxhYmVsIj48cD4rbWFrZUZpdHRpbmdFeHBlcnQoKSA6IERvb3JGaXR0aW5nRXhwZXJ0PC9wPjwvc3Bhbj48L2Rpdj48L2ZvcmVpZ25PYmplY3Q+PC9nPjwvZz48ZyBzdHlsZT0iIiBjbGFzcz0iZGl2aWRlciI+PHBhdGggc3R5bGU9IiIgZmlsbD0ibm9uZSIgc3Ryb2tlLXdpZHRoPSIxLjMiIHN0cm9rZT0iIzk5OSIgZD0iTS0xODIuMjc0OTkzODk2NDg0MzggLTE1IEMtODcuNDkwNTEzMDczMTc2MjYgLTE1LCA3LjI5Mzk2Nzc1MDEzMTg1NiAtMTUsIDE4Mi4yNzQ5OTM4OTY0ODQzOCAtMTUgTS0xODIuMjc0OTkzODk2NDg0MzggLTE1IEMtOTYuMTIwOTgxMjg2NzI5MzkgLTE1LCAtOS45NjY5Njg2NzY5NzQ0MDMgLTE1LCAxODIuMjc0OTkzODk2NDg0MzggLTE1Ij48L3BhdGg+PC9nPjxnIHN0eWxlPSIiIGNsYXNzPSJkaXZpZGVyIj48cGF0aCBzdHlsZT0iIiBmaWxsPSJub25lIiBzdHJva2Utd2lkdGg9IjEuMyIgc3Ryb2tlPSIjOTk5IiBkPSJNLTE4Mi4yNzQ5OTM4OTY0ODQzOCA5IEMtNTkuNTY0ODcyNzk4NjY0NDk2IDksIDYzLjE0NTI0ODI5OTE1NTM4NCA5LCAxODIuMjc0OTkzODk2NDg0MzggOSBNLTE4Mi4yNzQ5OTM4OTY0ODQzOCA5IEMtNTIuNDExNjY4NDcwNzcxMTYgOSwgNzcuNDUxNjU2OTU0OTQyMDUgOSwgMTgyLjI3NDk5Mzg5NjQ4NDM4IDkiPjwvcGF0aD48L2c+PC9nPjxnIHRyYW5zZm9ybT0idHJhbnNsYXRlKDE1MS45MjUwMDIwOTgwODM1LCA3NzQuMTk5OTk4ODU1NTkwOCkiIGlkPSJjbGFzc0lkLVdvb2RlbkRvb3ItMyIgY2xhc3M9Im5vZGUgZGVmYXVsdCI+PGcgY2xhc3M9ImJhc2ljIGxhYmVsLWNvbnRhaW5lciI+PHBhdGggc3R5bGU9IiIgZmlsbD0iI2VlZSIgc3Ryb2tlLXdpZHRoPSIwIiBzdHJva2U9Im5vbmUiIGQ9Ik0tNjQuMDY4NzUyMjg4ODE4MzYgLTc1IEw2NC4wNjg3NTIyODg4MTgzNiAtNzUgTDY0LjA2ODc1MjI4ODgxODM2IDc1IEwtNjQuMDY4NzUyMjg4ODE4MzYgNzUiPjwvcGF0aD48cGF0aCBzdHlsZT0iIiBmaWxsPSJub25lIiBzdHJva2Utd2lkdGg9IjEuMyIgc3Ryb2tlPSIjOTk5IiBkPSJNLTY0LjA2ODc1MjI4ODgxODM2IC03NSBDLTMxLjkxOTE2MjY0Nzc0MDQgLTc1LCAwLjIzMDQyNjk5MzMzNzU1OTM0IC03NSwgNjQuMDY4NzUyMjg4ODE4MzYgLTc1IE0tNjQuMDY4NzUyMjg4ODE4MzYgLTc1IEMtMzUuODU0NjIyNzc5NDQ5MjQgLTc1LCAtNy42NDA0OTMyNzAwODAxMTQgLTc1LCA2NC4wNjg3NTIyODg4MTgzNiAtNzUgTTY0LjA2ODc1MjI4ODgxODM2IC03NSBDNjQuMDY4NzUyMjg4ODE4MzYgLTM4LjM2NTgyODkxMTkxMTU2NCwgNjQuMDY4NzUyMjg4ODE4MzYgLTEuNzMxNjU3ODIzODIzMTI3MywgNjQuMDY4NzUyMjg4ODE4MzYgNzUgTTY0LjA2ODc1MjI4ODgxODM2IC03NSBDNjQuMDY4NzUyMjg4ODE4MzYgLTMwLjQzMzIwMjY0MDY5NjA0NSwgNjQuMDY4NzUyMjg4ODE4MzYgMTQuMTMzNTk0NzE4NjA3OTEsIDY0LjA2ODc1MjI4ODgxODM2IDc1IE02NC4wNjg3NTIyODg4MTgzNiA3NSBDMTkuMzQ3NDMxNTY2NTIzODggNzUsIC0yNS4zNzM4ODkxNTU3NzA2IDc1LCAtNjQuMDY4NzUyMjg4ODE4MzYgNzUgTTY0LjA2ODc1MjI4ODgxODM2IDc1IEMzMC41OTk1NzQ2ODc2OTM2MTggNzUsIC0yLjg2OTYwMjkxMzQzMTEyMyA3NSwgLTY0LjA2ODc1MjI4ODgxODM2IDc1IE0tNjQuMDY4NzUyMjg4ODE4MzYgNzUgQy02NC4wNjg3NTIyODg4MTgzNiAzMy43MDUzODgyNjIwNDI3MiwgLTY0LjA2ODc1MjI4ODgxODM2IC03LjU4OTIyMzQ3NTkxNDU2NSwgLTY0LjA2ODc1MjI4ODgxODM2IC03NSBNLTY0LjA2ODc1MjI4ODgxODM2IDc1IEMtNjQuMDY4NzUyMjg4ODE4MzYgMzEuNDM0NDM5MzA4MzU5MTYsIC02NC4wNjg3NTIyODg4MTgzNiAtMTIuMTMxMTIxMzgzMjgxNjgsIC02NC4wNjg3NTIyODg4MTgzNiAtNzUiPjwvcGF0aD48L2c+PGcgdHJhbnNmb3JtPSJ0cmFuc2xhdGUoMCwgLTUxKSIgY2xhc3M9ImFubm90YXRpb24tZ3JvdXAgdGV4dCI+PC9nPjxnIHRyYW5zZm9ybT0idHJhbnNsYXRlKC00Ny41NjI1LCAtNTEpIiBjbGFzcz0ibGFiZWwtZ3JvdXAgdGV4dCI+PGcgdHJhbnNmb3JtPSJ0cmFuc2xhdGUoMCwtMTIpIiBzdHlsZT0iZm9udC13ZWlnaHQ6IGJvbGRlciIgY2xhc3M9ImxhYmVsIj48Zm9yZWlnbk9iamVjdCBoZWlnaHQ9IjI0IiB3aWR0aD0iOTUuMTI1Ij48ZGl2IHN0eWxlPSJkaXNwbGF5OiB0YWJsZS1jZWxsOyB3aGl0ZS1zcGFjZTogbm93cmFwOyBsaW5lLWhlaWdodDogMS41OyBtYXgtd2lkdGg6IDE0N3B4OyB0ZXh0LWFsaWduOiBjZW50ZXI7IiB4bWxucz0iaHR0cDovL3d3dy53My5vcmcvMTk5OS94aHRtbCI+PHNwYW4gc3R5bGU9IiIgY2xhc3M9Im5vZGVMYWJlbCBtYXJrZG93bi1ub2RlLWxhYmVsIj48cD5Xb29kZW5Eb29yPC9wPjwvc3Bhbj48L2Rpdj48L2ZvcmVpZ25PYmplY3Q+PC9nPjwvZz48ZyB0cmFuc2Zvcm09InRyYW5zbGF0ZSgtNTIuMDY4NzUyMjg4ODE4MzYsIC0zKSIgY2xhc3M9Im1lbWJlcnMtZ3JvdXAgdGV4dCI+PC9nPjxnIHRyYW5zZm9ybT0idHJhbnNsYXRlKC01Mi4wNjg3NTIyODg4MTgzNiwgMjcpIiBjbGFzcz0ibWV0aG9kcy1ncm91cCB0ZXh0Ij48ZyB0cmFuc2Zvcm09InRyYW5zbGF0ZSgwLC0xMikiIHN0eWxlPSIiIGNsYXNzPSJsYWJlbCI+PGZvcmVpZ25PYmplY3QgaGVpZ2h0PSIyNCIgd2lkdGg9IjU1LjExMjQ5OTIzNzA2MDU1Ij48ZGl2IHN0eWxlPSJkaXNwbGF5OiB0YWJsZS1jZWxsOyB3aGl0ZS1zcGFjZTogbm93cmFwOyBsaW5lLWhlaWdodDogMS41OyBtYXgtd2lkdGg6IDExNHB4OyB0ZXh0LWFsaWduOiBjZW50ZXI7IiB4bWxucz0iaHR0cDovL3d3dy53My5vcmcvMTk5OS94aHRtbCI+PHNwYW4gc3R5bGU9IiIgY2xhc3M9Im5vZGVMYWJlbCBtYXJrZG93bi1ub2RlLWxhYmVsIj48cD4rb3BlbigpPC9wPjwvc3Bhbj48L2Rpdj48L2ZvcmVpZ25PYmplY3Q+PC9nPjxnIHRyYW5zZm9ybT0idHJhbnNsYXRlKDAsMTIpIiBzdHlsZT0iIiBjbGFzcz0ibGFiZWwiPjxmb3JlaWduT2JqZWN0IGhlaWdodD0iMjQiIHdpZHRoPSI1Ni41NzUwMDA3NjI5Mzk0NSI+PGRpdiBzdHlsZT0iZGlzcGxheTogdGFibGUtY2VsbDsgd2hpdGUtc3BhY2U6IG5vd3JhcDsgbGluZS1oZWlnaHQ6IDEuNTsgbWF4LXdpZHRoOiAxMTNweDsgdGV4dC1hbGlnbjogY2VudGVyOyIgeG1sbnM9Imh0dHA6Ly93d3cudzMub3JnLzE5OTkveGh0bWwiPjxzcGFuIHN0eWxlPSIiIGNsYXNzPSJub2RlTGFiZWwgbWFya2Rvd24tbm9kZS1sYWJlbCI+PHA+K2Nsb3NlKCk8L3A+PC9zcGFuPjwvZGl2PjwvZm9yZWlnbk9iamVjdD48L2c+PC9nPjxnIHN0eWxlPSIiIGNsYXNzPSJkaXZpZGVyIj48cGF0aCBzdHlsZT0iIiBmaWxsPSJub25lIiBzdHJva2Utd2lkdGg9IjEuMyIgc3Ryb2tlPSIjOTk5IiBkPSJNLTY0LjA2ODc1NjEwMzUxNTYyIC0yNyBDLTM1LjkxOTI0MzQ2ODI1ODI5IC0yNywgLTcuNzY5NzMwODMzMDAwOTU2IC0yNywgNjQuMDY4NzU2MTAzNTE1NjIgLTI3IE0tNjQuMDY4NzU2MTAzNTE1NjIgLTI3IEMtMTYuNDY2MzE1NzM4MTI4NyAtMjcsIDMxLjEzNjEyNDYyNzI1ODIyNiAtMjcsIDY0LjA2ODc1NjEwMzUxNTYyIC0yNyI+PC9wYXRoPjwvZz48ZyBzdHlsZT0iIiBjbGFzcz0iZGl2aWRlciI+PHBhdGggc3R5bGU9IiIgZmlsbD0ibm9uZSIgc3Ryb2tlLXdpZHRoPSIxLjMiIHN0cm9rZT0iIzk5OSIgZD0iTS02NC4wNjg3NTYxMDM1MTU2MiAtMyBDLTMwLjc2NzA0MjAwNjY5OTYyNiAtMywgMi41MzQ2NzIwOTAxMTYzNzM1IC0zLCA2NC4wNjg3NTYxMDM1MTU2MiAtMyBNLTY0LjA2ODc1NjEwMzUxNTYyIC0zIEMtMjYuNjgzOTM5ODAzNDcxNTI0IC0zLCAxMC43MDA4NzY0OTY1NzI1NzYgLTMsIDY0LjA2ODc1NjEwMzUxNTYyIC0zIj48L3BhdGg+PC9nPjwvZz48ZyB0cmFuc2Zvcm09InRyYW5zbGF0ZSg0MDYuMTU5MzczMjgzMzg2MjMsIDc3NC4xOTk5OTg4NTU1OTA4KSIgaWQ9ImNsYXNzSWQtSXJvbkRvb3ItNCIgY2xhc3M9Im5vZGUgZGVmYXVsdCI+PGcgY2xhc3M9ImJhc2ljIGxhYmVsLWNvbnRhaW5lciI+PHBhdGggc3R5bGU9IiIgZmlsbD0iI2VlZSIgc3Ryb2tlLXdpZHRoPSIwIiBzdHJva2U9Im5vbmUiIGQ9Ik0tNTYuNTQzNzUwNzYyOTM5NDUgLTc1IEw1Ni41NDM3NTA3NjI5Mzk0NSAtNzUgTDU2LjU0Mzc1MDc2MjkzOTQ1IDc1IEwtNTYuNTQzNzUwNzYyOTM5NDUgNzUiPjwvcGF0aD48cGF0aCBzdHlsZT0iIiBmaWxsPSJub25lIiBzdHJva2Utd2lkdGg9IjEuMyIgc3Ryb2tlPSIjOTk5IiBkPSJNLTU2LjU0Mzc1MDc2MjkzOTQ1IC03NSBDLTI2LjI5OTU0NDM0NjE0OTkzIC03NSwgMy45NDQ2NjIwNzA2Mzk1OTQ3IC03NSwgNTYuNTQzNzUwNzYyOTM5NDUgLTc1IE0tNTYuNTQzNzUwNzYyOTM5NDUgLTc1IEMtMzEuMDIxMTA4NTE1NjU4NTIgLTc1LCAtNS40OTg0NjYyNjgzNzc1ODQgLTc1LCA1Ni41NDM3NTA3NjI5Mzk0NSAtNzUgTTU2LjU0Mzc1MDc2MjkzOTQ1IC03NSBDNTYuNTQzNzUwNzYyOTM5NDUgLTQwLjkzNDU2ODY4NDA0MTU2NSwgNTYuNTQzNzUwNzYyOTM5NDUgLTYuODY5MTM3MzY4MDgzMTMwNSwgNTYuNTQzNzUwNzYyOTM5NDUgNzUgTTU2LjU0Mzc1MDc2MjkzOTQ1IC03NSBDNTYuNTQzNzUwNzYyOTM5NDUgLTE1LjE2OTY1NDUzMjA0ODkzLCA1Ni41NDM3NTA3NjI5Mzk0NSA0NC42NjA2OTA5MzU5MDIxNCwgNTYuNTQzNzUwNzYyOTM5NDUgNzUgTTU2LjU0Mzc1MDc2MjkzOTQ1IDc1IEMyMS41NjM0OTk1Mjg3ODE2NDggNzUsIC0xMy40MTY3NTE3MDUzNzYxNTcgNzUsIC01Ni41NDM3NTA3NjI5Mzk0NSA3NSBNNTYuNTQzNzUwNzYyOTM5NDUgNzUgQzMwLjU1MzQ0MzMwODEzOTYwNiA3NSwgNC41NjMxMzU4NTMzMzk3NTkgNzUsIC01Ni41NDM3NTA3NjI5Mzk0NSA3NSBNLTU2LjU0Mzc1MDc2MjkzOTQ1IDc1IEMtNTYuNTQzNzUwNzYyOTM5NDUgMzguNjExMTQ3Njg4ODUyNzcsIC01Ni41NDM3NTA3NjI5Mzk0NSAyLjIyMjI5NTM3NzcwNTUzNSwgLTU2LjU0Mzc1MDc2MjkzOTQ1IC03NSBNLTU2LjU0Mzc1MDc2MjkzOTQ1IDc1IEMtNTYuNTQzNzUwNzYyOTM5NDUgMzcuMTY4NjE2NTYxMTIxNzk0LCAtNTYuNTQzNzUwNzYyOTM5NDUgLTAuNjYyNzY2ODc3NzU2NDExMSwgLTU2LjU0Mzc1MDc2MjkzOTQ1IC03NSI+PC9wYXRoPjwvZz48ZyB0cmFuc2Zvcm09InRyYW5zbGF0ZSgwLCAtNTEpIiBjbGFzcz0iYW5ub3RhdGlvbi1ncm91cCB0ZXh0Ij48L2c+PGcgdHJhbnNmb3JtPSJ0cmFuc2xhdGUoLTMyLjUxMjUwMDc2MjkzOTQ1LCAtNTEpIiBjbGFzcz0ibGFiZWwtZ3JvdXAgdGV4dCI+PGcgdHJhbnNmb3JtPSJ0cmFuc2xhdGUoMCwtMTIpIiBzdHlsZT0iZm9udC13ZWlnaHQ6IGJvbGRlciIgY2xhc3M9ImxhYmVsIj48Zm9yZWlnbk9iamVjdCBoZWlnaHQ9IjI0IiB3aWR0aD0iNjUuMDI1MDAxNTI1ODc4OSI+PGRpdiBzdHlsZT0iZGlzcGxheTogdGFibGUtY2VsbDsgd2hpdGUtc3BhY2U6IG5vd3JhcDsgbGluZS1oZWlnaHQ6IDEuNTsgbWF4LXdpZHRoOiAxMTVweDsgdGV4dC1hbGlnbjogY2VudGVyOyIgeG1sbnM9Imh0dHA6Ly93d3cudzMub3JnLzE5OTkveGh0bWwiPjxzcGFuIHN0eWxlPSIiIGNsYXNzPSJub2RlTGFiZWwgbWFya2Rvd24tbm9kZS1sYWJlbCI+PHA+SXJvbkRvb3I8L3A+PC9zcGFuPjwvZGl2PjwvZm9yZWlnbk9iamVjdD48L2c+PC9nPjxnIHRyYW5zZm9ybT0idHJhbnNsYXRlKC00NC41NDM3NTA3NjI5Mzk0NSwgLTMpIiBjbGFzcz0ibWVtYmVycy1ncm91cCB0ZXh0Ij48L2c+PGcgdHJhbnNmb3JtPSJ0cmFuc2xhdGUoLTQ0LjU0Mzc1MDc2MjkzOTQ1LCAyNykiIGNsYXNzPSJtZXRob2RzLWdyb3VwIHRleHQiPjxnIHRyYW5zZm9ybT0idHJhbnNsYXRlKDAsLTEyKSIgc3R5bGU9IiIgY2xhc3M9ImxhYmVsIj48Zm9yZWlnbk9iamVjdCBoZWlnaHQ9IjI0IiB3aWR0aD0iNTUuMTEyNDk5MjM3MDYwNTUiPjxkaXYgc3R5bGU9ImRpc3BsYXk6IHRhYmxlLWNlbGw7IHdoaXRlLXNwYWNlOiBub3dyYXA7IGxpbmUtaGVpZ2h0OiAxLjU7IG1heC13aWR0aDogMTE0cHg7IHRleHQtYWxpZ246IGNlbnRlcjsiIHhtbG5zPSJodHRwOi8vd3d3LnczLm9yZy8xOTk5L3hodG1sIj48c3BhbiBzdHlsZT0iIiBjbGFzcz0ibm9kZUxhYmVsIG1hcmtkb3duLW5vZGUtbGFiZWwiPjxwPitvcGVuKCk8L3A+PC9zcGFuPjwvZGl2PjwvZm9yZWlnbk9iamVjdD48L2c+PGcgdHJhbnNmb3JtPSJ0cmFuc2xhdGUoMCwxMikiIHN0eWxlPSIiIGNsYXNzPSJsYWJlbCI+PGZvcmVpZ25PYmplY3QgaGVpZ2h0PSIyNCIgd2lkdGg9IjU2LjU3NTAwMDc2MjkzOTQ1Ij48ZGl2IHN0eWxlPSJkaXNwbGF5OiB0YWJsZS1jZWxsOyB3aGl0ZS1zcGFjZTogbm93cmFwOyBsaW5lLWhlaWdodDogMS41OyBtYXgtd2lkdGg6IDExM3B4OyB0ZXh0LWFsaWduOiBjZW50ZXI7IiB4bWxucz0iaHR0cDovL3d3dy53My5vcmcvMTk5OS94aHRtbCI+PHNwYW4gc3R5bGU9IiIgY2xhc3M9Im5vZGVMYWJlbCBtYXJrZG93bi1ub2RlLWxhYmVsIj48cD4rY2xvc2UoKTwvcD48L3NwYW4+PC9kaXY+PC9mb3JlaWduT2JqZWN0PjwvZz48L2c+PGcgc3R5bGU9IiIgY2xhc3M9ImRpdmlkZXIiPjxwYXRoIHN0eWxlPSIiIGZpbGw9Im5vbmUiIHN0cm9rZS13aWR0aD0iMS4zIiBzdHJva2U9IiM5OTkiIGQ9Ik0tNTYuNTQzNzUwNzYyOTM5NDUgLTI3IEMtMTUuODE3MjQ3NzI3MTY5MzI0IC0yNywgMjQuOTA5MjU1MzA4NjAwODA1IC0yNywgNTYuNTQzNzUwNzYyOTM5NDUgLTI3IE0tNTYuNTQzNzUwNzYyOTM5NDUgLTI3IEMtMTYuNzExNzYxNTEwMzk0NTY3IC0yNywgMjMuMTIwMjI3NzQyMTUwMzIgLTI3LCA1Ni41NDM3NTA3NjI5Mzk0NSAtMjciPjwvcGF0aD48L2c+PGcgc3R5bGU9IiIgY2xhc3M9ImRpdmlkZXIiPjxwYXRoIHN0eWxlPSIiIGZpbGw9Im5vbmUiIHN0cm9rZS13aWR0aD0iMS4zIiBzdHJva2U9IiM5OTkiIGQ9Ik0tNTYuNTQzNzUwNzYyOTM5NDUgLTMgQy0yOS44MTEzNDMzNjc3MjA3OCAtMywgLTMuMDc4OTM1OTcyNTAyMTA4NiAtMywgNTYuNTQzNzUwNzYyOTM5NDUgLTMgTS01Ni41NDM3NTA3NjI5Mzk0NSAtMyBDLTI4LjQ2NDEzNjY1MTQ1NzM4NCAtMywgLTAuMzg0NTIyNTM5OTc1MzE0NyAtMywgNTYuNTQzNzUwNzYyOTM5NDUgLTMiPjwvcGF0aD48L2c+PC9nPjxnIHRyYW5zZm9ybT0idHJhbnNsYXRlKDg1OC42MDMxMjM2NjQ4NTYsIDc3NC4xOTk5OTg4NTU1OTA4KSIgaWQ9ImNsYXNzSWQtQ2FycGVudGVyLTUiIGNsYXNzPSJub2RlIGRlZmF1bHQiPjxnIGNsYXNzPSJiYXNpYyBsYWJlbC1jb250YWluZXIiPjxwYXRoIHN0eWxlPSIiIGZpbGw9IiNlZWUiIHN0cm9rZS13aWR0aD0iMCIgc3Ryb2tlPSJub25lIiBkPSJNLTEwMS4xMjE4NzE5NDgyNDIxOSAtNjMgTDEwMS4xMjE4NzE5NDgyNDIxOSAtNjMgTDEwMS4xMjE4NzE5NDgyNDIxOSA2MyBMLTEwMS4xMjE4NzE5NDgyNDIxOSA2MyI+PC9wYXRoPjxwYXRoIHN0eWxlPSIiIGZpbGw9Im5vbmUiIHN0cm9rZS13aWR0aD0iMS4zIiBzdHJva2U9IiM5OTkiIGQ9Ik0tMTAxLjEyMTg3MTk0ODI0MjE5IC02MyBDLTUyLjk1NzUwMDU2OTE0ODA0NiAtNjMsIC00Ljc5MzEyOTE5MDA1MzkwNCAtNjMsIDEwMS4xMjE4NzE5NDgyNDIxOSAtNjMgTS0xMDEuMTIxODcxOTQ4MjQyMTkgLTYzIEMtMjMuOTIxMzY2MjQ4NDUyNzcgLTYzLCA1My4yNzkxMzk0NTEzMzY2NSAtNjMsIDEwMS4xMjE4NzE5NDgyNDIxOSAtNjMgTTEwMS4xMjE4NzE5NDgyNDIxOSAtNjMgQzEwMS4xMjE4NzE5NDgyNDIxOSAtMjkuNTE0OTc2MzUyOTM3MTk3LCAxMDEuMTIxODcxOTQ4MjQyMTkgMy45NzAwNDcyOTQxMjU2MDY2LCAxMDEuMTIxODcxOTQ4MjQyMTkgNjMgTTEwMS4xMjE4NzE5NDgyNDIxOSAtNjMgQzEwMS4xMjE4NzE5NDgyNDIxOSAtMjAuNjcwNTA0NDIwNzg3MzQ2LCAxMDEuMTIxODcxOTQ4MjQyMTkgMjEuNjU4OTkxMTU4NDI1MzEsIDEwMS4xMjE4NzE5NDgyNDIxOSA2MyBNMTAxLjEyMTg3MTk0ODI0MjE5IDYzIEM1OC4xNDQ4MTM5MTU0OTEgNjMsIDE1LjE2Nzc1NTg4MjczOTgxMiA2MywgLTEwMS4xMjE4NzE5NDgyNDIxOSA2MyBNMTAxLjEyMTg3MTk0ODI0MjE5IDYzIEMzNy42MTczODg4OTYzODY5NSA2MywgLTI1Ljg4NzA5NDE1NTQ2ODI5IDYzLCAtMTAxLjEyMTg3MTk0ODI0MjE5IDYzIE0tMTAxLjEyMTg3MTk0ODI0MjE5IDYzIEMtMTAxLjEyMTg3MTk0ODI0MjE5IDE5LjQ5NDA5ODIzMDQ4MDc0NSwgLTEwMS4xMjE4NzE5NDgyNDIxOSAtMjQuMDExODAzNTM5MDM4NTEsIC0xMDEuMTIxODcxOTQ4MjQyMTkgLTYzIE0tMTAxLjEyMTg3MTk0ODI0MjE5IDYzIEMtMTAxLjEyMTg3MTk0ODI0MjE5IDIwLjQzMDA4MDQ1MDUyMzI3LCAtMTAxLjEyMTg3MTk0ODI0MjE5IC0yMi4xMzk4MzkwOTg5NTM0NiwgLTEwMS4xMjE4NzE5NDgyNDIxOSAtNjMiPjwvcGF0aD48L2c+PGcgdHJhbnNmb3JtPSJ0cmFuc2xhdGUoMCwgLTM5KSIgY2xhc3M9ImFubm90YXRpb24tZ3JvdXAgdGV4dCI+PC9nPjxnIHRyYW5zZm9ybT0idHJhbnNsYXRlKC0zNy43NDM3NTE1MjU4Nzg5MDYsIC0zOSkiIGNsYXNzPSJsYWJlbC1ncm91cCB0ZXh0Ij48ZyB0cmFuc2Zvcm09InRyYW5zbGF0ZSgwLC0xMikiIHN0eWxlPSJmb250LXdlaWdodDogYm9sZGVyIiBjbGFzcz0ibGFiZWwiPjxmb3JlaWduT2JqZWN0IGhlaWdodD0iMjQiIHdpZHRoPSI3NS40ODc1MDMwNTE3NTc4MSI+PGRpdiBzdHlsZT0iZGlzcGxheTogdGFibGUtY2VsbDsgd2hpdGUtc3BhY2U6IG5vd3JhcDsgbGluZS1oZWlnaHQ6IDEuNTsgbWF4LXdpZHRoOiAxMjFweDsgdGV4dC1hbGlnbjogY2VudGVyOyIgeG1sbnM9Imh0dHA6Ly93d3cudzMub3JnLzE5OTkveGh0bWwiPjxzcGFuIHN0eWxlPSIiIGNsYXNzPSJub2RlTGFiZWwgbWFya2Rvd24tbm9kZS1sYWJlbCI+PHA+Q2FycGVudGVyPC9wPjwvc3Bhbj48L2Rpdj48L2ZvcmVpZ25PYmplY3Q+PC9nPjwvZz48ZyB0cmFuc2Zvcm09InRyYW5zbGF0ZSgtODkuMTIxODcxOTQ4MjQyMTksIDkpIiBjbGFzcz0ibWVtYmVycy1ncm91cCB0ZXh0Ij48L2c+PGcgdHJhbnNmb3JtPSJ0cmFuc2xhdGUoLTg5LjEyMTg3MTk0ODI0MjE5LCAzOSkiIGNsYXNzPSJtZXRob2RzLWdyb3VwIHRleHQiPjxnIHRyYW5zZm9ybT0idHJhbnNsYXRlKDAsLTEyKSIgc3R5bGU9IiIgY2xhc3M9ImxhYmVsIj48Zm9yZWlnbk9iamVjdCBoZWlnaHQ9IjI0IiB3aWR0aD0iMTQwLjUiPjxkaXYgc3R5bGU9ImRpc3BsYXk6IHRhYmxlLWNlbGw7IHdoaXRlLXNwYWNlOiBub3dyYXA7IGxpbmUtaGVpZ2h0OiAxLjU7IG1heC13aWR0aDogMjAxcHg7IHRleHQtYWxpZ246IGNlbnRlcjsiIHhtbG5zPSJodHRwOi8vd3d3LnczLm9yZy8xOTk5L3hodG1sIj48c3BhbiBzdHlsZT0iIiBjbGFzcz0ibm9kZUxhYmVsIG1hcmtkb3duLW5vZGUtbGFiZWwiPjxwPitmaXREb29yKERvb3IgZG9vcik8L3A+PC9zcGFuPjwvZGl2PjwvZm9yZWlnbk9iamVjdD48L2c+PC9nPjxnIHN0eWxlPSIiIGNsYXNzPSJkaXZpZGVyIj48cGF0aCBzdHlsZT0iIiBmaWxsPSJub25lIiBzdHJva2Utd2lkdGg9IjEuMyIgc3Ryb2tlPSIjOTk5IiBkPSJNLTEwMS4xMjE4NzE5NDgyNDIxOSAtMTUgQy0zNC4xMDUzMDc4NTUxOTM3IC0xNSwgMzIuOTExMjU2MjM3ODU0Nzg2IC0xNSwgMTAxLjEyMTg3MTk0ODI0MjE5IC0xNSBNLTEwMS4xMjE4NzE5NDgyNDIxOSAtMTUgQy01NC40NDMzODQzMzQ1OTM5ODYgLTE1LCAtNy43NjQ4OTY3MjA5NDU3ODUgLTE1LCAxMDEuMTIxODcxOTQ4MjQyMTkgLTE1Ij48L3BhdGg+PC9nPjxnIHN0eWxlPSIiIGNsYXNzPSJkaXZpZGVyIj48cGF0aCBzdHlsZT0iIiBmaWxsPSJub25lIiBzdHJva2Utd2lkdGg9IjEuMyIgc3Ryb2tlPSIjOTk5IiBkPSJNLTEwMS4xMjE4NzE5NDgyNDIxOSA5IEMtNTUuODQ5MzEzNzk5MTkxMDcgOSwgLTEwLjU3Njc1NTY1MDEzOTk1OCA5LCAxMDEuMTIxODcxOTQ4MjQyMTkgOSBNLTEwMS4xMjE4NzE5NDgyNDIxOSA5IEMtMzQuMDEwODcxMTgyMDQzMiA5LCAzMy4xMDAxMjk1ODQxNTU3OCA5LCAxMDEuMTIxODcxOTQ4MjQyMTkgOSI+PC9wYXRoPjwvZz48L2c+PGcgdHJhbnNmb3JtPSJ0cmFuc2xhdGUoMTE2MC4xNjU2Mjc0Nzk1NTMyLCA3NzQuMTk5OTk4ODU1NTkwOCkiIGlkPSJjbGFzc0lkLVdlbGRlci02IiBjbGFzcz0ibm9kZSBkZWZhdWx0Ij48ZyBjbGFzcz0iYmFzaWMgbGFiZWwtY29udGFpbmVyIj48cGF0aCBzdHlsZT0iIiBmaWxsPSIjZWVlIiBzdHJva2Utd2lkdGg9IjAiIHN0cm9rZT0ibm9uZSIgZD0iTS05NS41MjE4NzM0NzQxMjExIC02MyBMOTUuNTIxODczNDc0MTIxMSAtNjMgTDk1LjUyMTg3MzQ3NDEyMTEgNjMgTC05NS41MjE4NzM0NzQxMjExIDYzIj48L3BhdGg+PHBhdGggc3R5bGU9IiIgZmlsbD0ibm9uZSIgc3Ryb2tlLXdpZHRoPSIxLjMiIHN0cm9rZT0iIzk5OSIgZD0iTS05NS41MjE4NzM0NzQxMjExIC02MyBDLTIzLjA0NjE3ODg5OTAyNzA0IC02MywgNDkuNDI5NTE1Njc2MDY3MDEgLTYzLCA5NS41MjE4NzM0NzQxMjExIC02MyBNLTk1LjUyMTg3MzQ3NDEyMTEgLTYzIEMtMzYuODgwNzQxNjA3NjExNjYgLTYzLCAyMS43NjAzOTAyNTg4OTc3NzIgLTYzLCA5NS41MjE4NzM0NzQxMjExIC02MyBNOTUuNTIxODczNDc0MTIxMSAtNjMgQzk1LjUyMTg3MzQ3NDEyMTEgLTM0LjU1NjIyMjU4NDY3MzgyNiwgOTUuNTIxODczNDc0MTIxMSAtNi4xMTI0NDUxNjkzNDc2NTIsIDk1LjUyMTg3MzQ3NDEyMTEgNjMgTTk1LjUyMTg3MzQ3NDEyMTEgLTYzIEM5NS41MjE4NzM0NzQxMjExIC0zNS4yODU0ODU5NTM1NzA3NywgOTUuNTIxODczNDc0MTIxMSAtNy41NzA5NzE5MDcxNDE1MzQsIDk1LjUyMTg3MzQ3NDEyMTEgNjMgTTk1LjUyMTg3MzQ3NDEyMTEgNjMgQzQ0LjEyMTcwNjIyMDQxMjQ4NCA2MywgLTcuMjc4NDYxMDMzMjk2MTI1IDYzLCAtOTUuNTIxODczNDc0MTIxMSA2MyBNOTUuNTIxODczNDc0MTIxMSA2MyBDNTAuMTA2MzUyMDMxMTM1MSA2MywgNC42OTA4MzA1ODgxNDkxMTIgNjMsIC05NS41MjE4NzM0NzQxMjExIDYzIE0tOTUuNTIxODczNDc0MTIxMSA2MyBDLTk1LjUyMTg3MzQ3NDEyMTEgMjYuOTczODA4MDk5NDI4MTk3LCAtOTUuNTIxODczNDc0MTIxMSAtOS4wNTIzODM4MDExNDM2MDYsIC05NS41MjE4NzM0NzQxMjExIC02MyBNLTk1LjUyMTg3MzQ3NDEyMTEgNjMgQy05NS41MjE4NzM0NzQxMjExIDIyLjM0NTg0NjA5NzQzNjc1NSwgLTk1LjUyMTg3MzQ3NDEyMTEgLTE4LjMwODMwNzgwNTEyNjQ5LCAtOTUuNTIxODczNDc0MTIxMSAtNjMiPjwvcGF0aD48L2c+PGcgdHJhbnNmb3JtPSJ0cmFuc2xhdGUoMCwgLTM5KSIgY2xhc3M9ImFubm90YXRpb24tZ3JvdXAgdGV4dCI+PC9nPjxnIHRyYW5zZm9ybT0idHJhbnNsYXRlKC0yNi41NDM3NTA3NjI5Mzk0NTMsIC0zOSkiIGNsYXNzPSJsYWJlbC1ncm91cCB0ZXh0Ij48ZyB0cmFuc2Zvcm09InRyYW5zbGF0ZSgwLC0xMikiIHN0eWxlPSJmb250LXdlaWdodDogYm9sZGVyIiBjbGFzcz0ibGFiZWwiPjxmb3JlaWduT2JqZWN0IGhlaWdodD0iMjQiIHdpZHRoPSI1My4wODc1MDE1MjU4Nzg5MDYiPjxkaXYgc3R5bGU9ImRpc3BsYXk6IHRhYmxlLWNlbGw7IHdoaXRlLXNwYWNlOiBub3dyYXA7IGxpbmUtaGVpZ2h0OiAxLjU7IG1heC13aWR0aDogMTAycHg7IHRleHQtYWxpZ246IGNlbnRlcjsiIHhtbG5zPSJodHRwOi8vd3d3LnczLm9yZy8xOTk5L3hodG1sIj48c3BhbiBzdHlsZT0iIiBjbGFzcz0ibm9kZUxhYmVsIG1hcmtkb3duLW5vZGUtbGFiZWwiPjxwPldlbGRlcjwvcD48L3NwYW4+PC9kaXY+PC9mb3JlaWduT2JqZWN0PjwvZz48L2c+PGcgdHJhbnNmb3JtPSJ0cmFuc2xhdGUoLTgzLjUyMTg3MzQ3NDEyMTEsIDkpIiBjbGFzcz0ibWVtYmVycy1ncm91cCB0ZXh0Ij48L2c+PGcgdHJhbnNmb3JtPSJ0cmFuc2xhdGUoLTgzLjUyMTg3MzQ3NDEyMTEsIDM5KSIgY2xhc3M9Im1ldGhvZHMtZ3JvdXAgdGV4dCI+PGcgdHJhbnNmb3JtPSJ0cmFuc2xhdGUoMCwtMTIpIiBzdHlsZT0iIiBjbGFzcz0ibGFiZWwiPjxmb3JlaWduT2JqZWN0IGhlaWdodD0iMjQiIHdpZHRoPSIxNDAuNSI+PGRpdiBzdHlsZT0iZGlzcGxheTogdGFibGUtY2VsbDsgd2hpdGUtc3BhY2U6IG5vd3JhcDsgbGluZS1oZWlnaHQ6IDEuNTsgbWF4LXdpZHRoOiAyMDFweDsgdGV4dC1hbGlnbjogY2VudGVyOyIgeG1sbnM9Imh0dHA6Ly93d3cudzMub3JnLzE5OTkveGh0bWwiPjxzcGFuIHN0eWxlPSIiIGNsYXNzPSJub2RlTGFiZWwgbWFya2Rvd24tbm9kZS1sYWJlbCI+PHA+K2ZpdERvb3IoRG9vciBkb29yKTwvcD48L3NwYW4+PC9kaXY+PC9mb3JlaWduT2JqZWN0PjwvZz48L2c+PGcgc3R5bGU9IiIgY2xhc3M9ImRpdmlkZXIiPjxwYXRoIHN0eWxlPSIiIGZpbGw9Im5vbmUiIHN0cm9rZS13aWR0aD0iMS4zIiBzdHJva2U9IiM5OTkiIGQ9Ik0tOTUuNTIxODczNDc0MTIxMSAtMTUgQy0yNC41NzkzMDE0ODg4MTY5NjcgLTE1LCA0Ni4zNjMyNzA0OTY0ODcxNiAtMTUsIDk1LjUyMTg3MzQ3NDEyMTEgLTE1IE0tOTUuNTIxODczNDc0MTIxMSAtMTUgQy0yNy42MjgyMDAxMzQ1NDQ1IC0xNSwgNDAuMjY1NDczMjA1MDMyMDk0IC0xNSwgOTUuNTIxODczNDc0MTIxMSAtMTUiPjwvcGF0aD48L2c+PGcgc3R5bGU9IiIgY2xhc3M9ImRpdmlkZXIiPjxwYXRoIHN0eWxlPSIiIGZpbGw9Im5vbmUiIHN0cm9rZS13aWR0aD0iMS4zIiBzdHJva2U9IiM5OTkiIGQ9Ik0tOTUuNTIxODczNDc0MTIxMSA5IEMtMzMuNjA0MDkzNzk1Mjg2ODggOSwgMjguMzEzNjg1ODgzNTQ3MzM2IDksIDk1LjUyMTg3MzQ3NDEyMTEgOSBNLTk1LjUyMTg3MzQ3NDEyMTEgOSBDLTQzLjYwNzY5MTkwMTQ4MTM3NCA5LCA4LjMwNjQ4OTY3MTE1ODM0NiA5LCA5NS41MjE4NzM0NzQxMjExIDkiPjwvcGF0aD48L2c+PC9nPjxnIHRyYW5zZm9ybT0idHJhbnNsYXRlKDQxMy44OTY4NzM0NzQxMjExLCA1MzkuNzk5OTk5MjM3MDYwNSkiIGlkPSJjbGFzc0lkLVdvb2RlbkRvb3JGYWN0b3J5LTciIGNsYXNzPSJub2RlIGRlZmF1bHQiPjxnIGNsYXNzPSJiYXNpYyBsYWJlbC1jb250YWluZXIiPjxwYXRoIHN0eWxlPSIiIGZpbGw9IiNlZWUiIHN0cm9rZS13aWR0aD0iMCIgc3Ryb2tlPSJub25lIiBkPSJNLTE5Ny4yNDY4NzE5NDgyNDIyIC03NSBMMTk3LjI0Njg3MTk0ODI0MjIgLTc1IEwxOTcuMjQ2ODcxOTQ4MjQyMiA3NSBMLTE5Ny4yNDY4NzE5NDgyNDIyIDc1Ij48L3BhdGg+PHBhdGggc3R5bGU9IiIgZmlsbD0ibm9uZSIgc3Ryb2tlLXdpZHRoPSIxLjMiIHN0cm9rZT0iIzk5OSIgZD0iTS0xOTcuMjQ2ODcxOTQ4MjQyMiAtNzUgQy02Mi45MTk1NjU2MDA2Mzk0OSAtNzUsIDcxLjQwNzc0MDc0Njk2MzIxIC03NSwgMTk3LjI0Njg3MTk0ODI0MjIgLTc1IE0tMTk3LjI0Njg3MTk0ODI0MjIgLTc1IEMtNTAuNDg3NzY1NzI3MTc0MDM2IC03NSwgOTYuMjcxMzQwNDkzODk0MTIgLTc1LCAxOTcuMjQ2ODcxOTQ4MjQyMiAtNzUgTTE5Ny4yNDY4NzE5NDgyNDIyIC03NSBDMTk3LjI0Njg3MTk0ODI0MjIgLTE3LjI4ODkzODcwNTg0OTE0LCAxOTcuMjQ2ODcxOTQ4MjQyMiA0MC40MjIxMjI1ODgzMDE3MiwgMTk3LjI0Njg3MTk0ODI0MjIgNzUgTTE5Ny4yNDY4NzE5NDgyNDIyIC03NSBDMTk3LjI0Njg3MTk0ODI0MjIgLTM0LjkwNzg3NjE0OTQ0NTM3LCAxOTcuMjQ2ODcxOTQ4MjQyMiA1LjE4NDI0NzcwMTEwOTI1NywgMTk3LjI0Njg3MTk0ODI0MjIgNzUgTTE5Ny4yNDY4NzE5NDgyNDIyIDc1IEM3My42NDgxNTU5NjgxODE4NCA3NSwgLTQ5Ljk1MDU2MDAxMTg3ODUxIDc1LCAtMTk3LjI0Njg3MTk0ODI0MjIgNzUgTTE5Ny4yNDY4NzE5NDgyNDIyIDc1IEM2Ny42Nzk3NDMyNjU3ODYwNyA3NSwgLTYxLjg4NzM4NTQxNjY3MDA0IDc1LCAtMTk3LjI0Njg3MTk0ODI0MjIgNzUgTS0xOTcuMjQ2ODcxOTQ4MjQyMiA3NSBDLTE5Ny4yNDY4NzE5NDgyNDIyIDM5Ljg4NTYyMjExMjY3MDMyLCAtMTk3LjI0Njg3MTk0ODI0MjIgNC43NzEyNDQyMjUzNDA2MzgsIC0xOTcuMjQ2ODcxOTQ4MjQyMiAtNzUgTS0xOTcuMjQ2ODcxOTQ4MjQyMiA3NSBDLTE5Ny4yNDY4NzE5NDgyNDIyIDMzLjYwMjE2MDM5NjI0MTM0NSwgLTE5Ny4yNDY4NzE5NDgyNDIyIC03Ljc5NTY3OTIwNzUxNzMxLCAtMTk3LjI0Njg3MTk0ODI0MjIgLTc1Ij48L3BhdGg+PC9nPjxnIHRyYW5zZm9ybT0idHJhbnNsYXRlKDAsIC01MSkiIGNsYXNzPSJhbm5vdGF0aW9uLWdyb3VwIHRleHQiPjwvZz48ZyB0cmFuc2Zvcm09InRyYW5zbGF0ZSgtNzUuNTkzNzUsIC01MSkiIGNsYXNzPSJsYWJlbC1ncm91cCB0ZXh0Ij48ZyB0cmFuc2Zvcm09InRyYW5zbGF0ZSgwLC0xMikiIHN0eWxlPSJmb250LXdlaWdodDogYm9sZGVyIiBjbGFzcz0ibGFiZWwiPjxmb3JlaWduT2JqZWN0IGhlaWdodD0iMjQiIHdpZHRoPSIxNTEuMTg3NSI+PGRpdiBzdHlsZT0iZGlzcGxheTogdGFibGUtY2VsbDsgd2hpdGUtc3BhY2U6IG5vd3JhcDsgbGluZS1oZWlnaHQ6IDEuNTsgbWF4LXdpZHRoOiAxOTdweDsgdGV4dC1hbGlnbjogY2VudGVyOyIgeG1sbnM9Imh0dHA6Ly93d3cudzMub3JnLzE5OTkveGh0bWwiPjxzcGFuIHN0eWxlPSIiIGNsYXNzPSJub2RlTGFiZWwgbWFya2Rvd24tbm9kZS1sYWJlbCI+PHA+V29vZGVuRG9vckZhY3Rvcnk8L3A+PC9zcGFuPjwvZGl2PjwvZm9yZWlnbk9iamVjdD48L2c+PC9nPjxnIHRyYW5zZm9ybT0idHJhbnNsYXRlKC0xODUuMjQ2ODcxOTQ4MjQyMiwgLTMpIiBjbGFzcz0ibWVtYmVycy1ncm91cCB0ZXh0Ij48L2c+PGcgdHJhbnNmb3JtPSJ0cmFuc2xhdGUoLTE4NS4yNDY4NzE5NDgyNDIyLCAyNykiIGNsYXNzPSJtZXRob2RzLWdyb3VwIHRleHQiPjxnIHRyYW5zZm9ybT0idHJhbnNsYXRlKDAsLTEyKSIgc3R5bGU9IiIgY2xhc3M9ImxhYmVsIj48Zm9yZWlnbk9iamVjdCBoZWlnaHQ9IjI0IiB3aWR0aD0iMTQwLjU1MDAwMzA1MTc1NzgiPjxkaXYgc3R5bGU9ImRpc3BsYXk6IHRhYmxlLWNlbGw7IHdoaXRlLXNwYWNlOiBub3dyYXA7IGxpbmUtaGVpZ2h0OiAxLjU7IG1heC13aWR0aDogMjAwcHg7IHRleHQtYWxpZ246IGNlbnRlcjsiIHhtbG5zPSJodHRwOi8vd3d3LnczLm9yZy8xOTk5L3hodG1sIj48c3BhbiBzdHlsZT0iIiBjbGFzcz0ibm9kZUxhYmVsIG1hcmtkb3duLW5vZGUtbGFiZWwiPjxwPittYWtlRG9vcigpIDogRG9vcjwvcD48L3NwYW4+PC9kaXY+PC9mb3JlaWduT2JqZWN0PjwvZz48ZyB0cmFuc2Zvcm09InRyYW5zbGF0ZSgwLDEyKSIgc3R5bGU9IiIgY2xhc3M9ImxhYmVsIj48Zm9yZWlnbk9iamVjdCBoZWlnaHQ9IjI0IiB3aWR0aD0iMjk0Ljg5OTk5Mzg5NjQ4NDQiPjxkaXYgc3R5bGU9ImRpc3BsYXk6IHRhYmxlLWNlbGw7IHdoaXRlLXNwYWNlOiBub3dyYXA7IGxpbmUtaGVpZ2h0OiAxLjU7IG1heC13aWR0aDogMzQycHg7IHRleHQtYWxpZ246IGNlbnRlcjsiIHhtbG5zPSJodHRwOi8vd3d3LnczLm9yZy8xOTk5L3hodG1sIj48c3BhbiBzdHlsZT0iIiBjbGFzcz0ibm9kZUxhYmVsIG1hcmtkb3duLW5vZGUtbGFiZWwiPjxwPittYWtlRml0dGluZ0V4cGVydCgpIDogRG9vckZpdHRpbmdFeHBlcnQ8L3A+PC9zcGFuPjwvZGl2PjwvZm9yZWlnbk9iamVjdD48L2c+PC9nPjxnIHN0eWxlPSIiIGNsYXNzPSJkaXZpZGVyIj48cGF0aCBzdHlsZT0iIiBmaWxsPSJub25lIiBzdHJva2Utd2lkdGg9IjEuMyIgc3Ryb2tlPSIjOTk5IiBkPSJNLTE5Ny4yNDY4NzE5NDgyNDIyIC0yNyBDLTgzLjQxNDA0NjI3NjIyNjYzIC0yNywgMzAuNDE4Nzc5Mzk1Nzg4OTMgLTI3LCAxOTcuMjQ2ODcxOTQ4MjQyMiAtMjcgTS0xOTcuMjQ2ODcxOTQ4MjQyMiAtMjcgQy0zOS43ODkwNzgwMzg0ODYyOCAtMjcsIDExNy42Njg3MTU4NzEyNjk2MyAtMjcsIDE5Ny4yNDY4NzE5NDgyNDIyIC0yNyI+PC9wYXRoPjwvZz48ZyBzdHlsZT0iIiBjbGFzcz0iZGl2aWRlciI+PHBhdGggc3R5bGU9IiIgZmlsbD0ibm9uZSIgc3Ryb2tlLXdpZHRoPSIxLjMiIHN0cm9rZT0iIzk5OSIgZD0iTS0xOTcuMjQ2ODcxOTQ4MjQyMiAtMyBDLTcyLjcxMDEwOTUyMjMxNTMgLTMsIDUxLjgyNjY1MjkwMzYxMTU3NCAtMywgMTk3LjI0Njg3MTk0ODI0MjIgLTMgTS0xOTcuMjQ2ODcxOTQ4MjQyMiAtMyBDLTg2LjcyMjU5MDE4OTMwOTI0IC0zLCAyMy44MDE2OTE1Njk2MjM3IC0zLCAxOTcuMjQ2ODcxOTQ4MjQyMiAtMyI+PC9wYXRoPjwvZz48L2c+PGcgdHJhbnNmb3JtPSJ0cmFuc2xhdGUoODUwLjg2NTYyMzQ3NDEyMTEsIDUzOS43OTk5OTkyMzcwNjA1KSIgaWQ9ImNsYXNzSWQtSXJvbkRvb3JGYWN0b3J5LTgiIGNsYXNzPSJub2RlIGRlZmF1bHQiPjxnIGNsYXNzPSJiYXNpYyBsYWJlbC1jb250YWluZXIiPjxwYXRoIHN0eWxlPSIiIGZpbGw9IiNlZWUiIHN0cm9rZS13aWR0aD0iMCIgc3Ryb2tlPSJub25lIiBkPSJNLTE4OS43MjE4NzgwNTE3NTc4IC03NSBMMTg5LjcyMTg3ODA1MTc1NzggLTc1IEwxODkuNzIxODc4MDUxNzU3OCA3NSBMLTE4OS43MjE4NzgwNTE3NTc4IDc1Ij48L3BhdGg+PHBhdGggc3R5bGU9IiIgZmlsbD0ibm9uZSIgc3Ryb2tlLXdpZHRoPSIxLjMiIHN0cm9rZT0iIzk5OSIgZD0iTS0xODkuNzIxODc4MDUxNzU3OCAtNzUgQy0xMDIuMjg4NTU0MTU5MTExNjUgLTc1LCAtMTQuODU1MjMwMjY2NDY1NDk3IC03NSwgMTg5LjcyMTg3ODA1MTc1NzggLTc1IE0tMTg5LjcyMTg3ODA1MTc1NzggLTc1IEMtNTIuNzU5MTk2NjA2OTE5ODMgLTc1LCA4NC4yMDM0ODQ4Mzc5MTgxNSAtNzUsIDE4OS43MjE4NzgwNTE3NTc4IC03NSBNMTg5LjcyMTg3ODA1MTc1NzggLTc1IEMxODkuNzIxODc4MDUxNzU3OCAtNDAuNjYwNjU3NDQ0NTI2MjQsIDE4OS43MjE4NzgwNTE3NTc4IC02LjMyMTMxNDg4OTA1MjQ3MzUsIDE4OS43MjE4NzgwNTE3NTc4IDc1IE0xODkuNzIxODc4MDUxNzU3OCAtNzUgQzE4OS43MjE4NzgwNTE3NTc4IC0xOC45MzEwNzY4MTE5MDA0MjUsIDE4OS43MjE4NzgwNTE3NTc4IDM3LjEzNzg0NjM3NjE5OTE1LCAxODkuNzIxODc4MDUxNzU3OCA3NSBNMTg5LjcyMTg3ODA1MTc1NzggNzUgQzg4LjE3ODkxNDcxMzcxMjA2IDc1LCAtMTMuMzY0MDQ4NjI0MzMzNjkxIDc1LCAtMTg5LjcyMTg3ODA1MTc1NzggNzUgTTE4OS43MjE4NzgwNTE3NTc4IDc1IEM0My44OTYyMTU1NjQyMzcyNSA3NSwgLTEwMS45Mjk0NDY5MjMyODMzMSA3NSwgLTE4OS43MjE4NzgwNTE3NTc4IDc1IE0tMTg5LjcyMTg3ODA1MTc1NzggNzUgQy0xODkuNzIxODc4MDUxNzU3OCAyNC42NzQ2NTkzNDQ4Mjc0NzUsIC0xODkuNzIxODc4MDUxNzU3OCAtMjUuNjUwNjgxMzEwMzQ1MDUsIC0xODkuNzIxODc4MDUxNzU3OCAtNzUgTS0xODkuNzIxODc4MDUxNzU3OCA3NSBDLTE4OS43MjE4NzgwNTE3NTc4IDE4LjcwNjE5NjYyNzA2MDk0NywgLTE4OS43MjE4NzgwNTE3NTc4IC0zNy41ODc2MDY3NDU4NzgxMDUsIC0xODkuNzIxODc4MDUxNzU3OCAtNzUiPjwvcGF0aD48L2c+PGcgdHJhbnNmb3JtPSJ0cmFuc2xhdGUoMCwgLTUxKSIgY2xhc3M9ImFubm90YXRpb24tZ3JvdXAgdGV4dCI+PC9nPjxnIHRyYW5zZm9ybT0idHJhbnNsYXRlKC02MC41NDM3NTA3NjI5Mzk0NSwgLTUxKSIgY2xhc3M9ImxhYmVsLWdyb3VwIHRleHQiPjxnIHRyYW5zZm9ybT0idHJhbnNsYXRlKDAsLTEyKSIgc3R5bGU9ImZvbnQtd2VpZ2h0OiBib2xkZXIiIGNsYXNzPSJsYWJlbCI+PGZvcmVpZ25PYmplY3QgaGVpZ2h0PSIyNCIgd2lkdGg9IjEyMS4wODc1MDE1MjU4Nzg5Ij48ZGl2IHN0eWxlPSJkaXNwbGF5OiB0YWJsZS1jZWxsOyB3aGl0ZS1zcGFjZTogbm93cmFwOyBsaW5lLWhlaWdodDogMS41OyBtYXgtd2lkdGg6IDE2NXB4OyB0ZXh0LWFsaWduOiBjZW50ZXI7IiB4bWxucz0iaHR0cDovL3d3dy53My5vcmcvMTk5OS94aHRtbCI+PHNwYW4gc3R5bGU9IiIgY2xhc3M9Im5vZGVMYWJlbCBtYXJrZG93bi1ub2RlLWxhYmVsIj48cD5Jcm9uRG9vckZhY3Rvcnk8L3A+PC9zcGFuPjwvZGl2PjwvZm9yZWlnbk9iamVjdD48L2c+PC9nPjxnIHRyYW5zZm9ybT0idHJhbnNsYXRlKC0xNzcuNzIxODc4MDUxNzU3OCwgLTMpIiBjbGFzcz0ibWVtYmVycy1ncm91cCB0ZXh0Ij48L2c+PGcgdHJhbnNmb3JtPSJ0cmFuc2xhdGUoLTE3Ny43MjE4NzgwNTE3NTc4LCAyNykiIGNsYXNzPSJtZXRob2RzLWdyb3VwIHRleHQiPjxnIHRyYW5zZm9ybT0idHJhbnNsYXRlKDAsLTEyKSIgc3R5bGU9IiIgY2xhc3M9ImxhYmVsIj48Zm9yZWlnbk9iamVjdCBoZWlnaHQ9IjI0IiB3aWR0aD0iMTQwLjU1MDAwMzA1MTc1NzgiPjxkaXYgc3R5bGU9ImRpc3BsYXk6IHRhYmxlLWNlbGw7IHdoaXRlLXNwYWNlOiBub3dyYXA7IGxpbmUtaGVpZ2h0OiAxLjU7IG1heC13aWR0aDogMjAwcHg7IHRleHQtYWxpZ246IGNlbnRlcjsiIHhtbG5zPSJodHRwOi8vd3d3LnczLm9yZy8xOTk5L3hodG1sIj48c3BhbiBzdHlsZT0iIiBjbGFzcz0ibm9kZUxhYmVsIG1hcmtkb3duLW5vZGUtbGFiZWwiPjxwPittYWtlRG9vcigpIDogRG9vcjwvcD48L3NwYW4+PC9kaXY+PC9mb3JlaWduT2JqZWN0PjwvZz48ZyB0cmFuc2Zvcm09InRyYW5zbGF0ZSgwLDEyKSIgc3R5bGU9IiIgY2xhc3M9ImxhYmVsIj48Zm9yZWlnbk9iamVjdCBoZWlnaHQ9IjI0IiB3aWR0aD0iMjk0Ljg5OTk5Mzg5NjQ4NDQiPjxkaXYgc3R5bGU9ImRpc3BsYXk6IHRhYmxlLWNlbGw7IHdoaXRlLXNwYWNlOiBub3dyYXA7IGxpbmUtaGVpZ2h0OiAxLjU7IG1heC13aWR0aDogMzQycHg7IHRleHQtYWxpZ246IGNlbnRlcjsiIHhtbG5zPSJodHRwOi8vd3d3LnczLm9yZy8xOTk5L3hodG1sIj48c3BhbiBzdHlsZT0iIiBjbGFzcz0ibm9kZUxhYmVsIG1hcmtkb3duLW5vZGUtbGFiZWwiPjxwPittYWtlRml0dGluZ0V4cGVydCgpIDogRG9vckZpdHRpbmdFeHBlcnQ8L3A+PC9zcGFuPjwvZGl2PjwvZm9yZWlnbk9iamVjdD48L2c+PC9nPjxnIHN0eWxlPSIiIGNsYXNzPSJkaXZpZGVyIj48cGF0aCBzdHlsZT0iIiBmaWxsPSJub25lIiBzdHJva2Utd2lkdGg9IjEuMyIgc3Ryb2tlPSIjOTk5IiBkPSJNLTE4OS43MjE4NzgwNTE3NTc4IC0yNyBDLTExMy4zMjg1ODY3NDcxOTUyMyAtMjcsIC0zNi45MzUyOTU0NDI2MzI2NSAtMjcsIDE4OS43MjE4NzgwNTE3NTc4IC0yNyBNLTE4OS43MjE4NzgwNTE3NTc4IC0yNyBDLTEwMy4yMzg0Mzc2NTQ3NTYzNSAtMjcsIC0xNi43NTQ5OTcyNTc3NTQ4OTQgLTI3LCAxODkuNzIxODc4MDUxNzU3OCAtMjciPjwvcGF0aD48L2c+PGcgc3R5bGU9IiIgY2xhc3M9ImRpdmlkZXIiPjxwYXRoIHN0eWxlPSIiIGZpbGw9Im5vbmUiIHN0cm9rZS13aWR0aD0iMS4zIiBzdHJva2U9IiM5OTkiIGQ9Ik0tMTg5LjcyMTg3ODA1MTc1NzggLTMgQy03NC44MTE2NTkzNjk5NzE1MSAtMywgNDAuMDk4NTU5MzExODE0Nzk2IC0zLCAxODkuNzIxODc4MDUxNzU3OCAtMyBNLTE4OS43MjE4NzgwNTE3NTc4IC0zIEMtNzcuNDQ4MjAyNjg5NzYxNjIgLTMsIDM0LjgyNTQ3MjY3MjIzNDU4IC0zLCAxODkuNzIxODc4MDUxNzU3OCAtMyI+PC9wYXRoPjwvZz48L2c+PGcgdHJhbnNmb3JtPSJ0cmFuc2xhdGUoODEwLjEwNjI1MDc2MjkzOTUsIDcxKSIgaWQ9ImNsYXNzSWQtQWJzdHJhY3RGYWN0b3J5RFAtOSIgY2xhc3M9Im5vZGUgZGVmYXVsdCI+PGcgY2xhc3M9ImJhc2ljIGxhYmVsLWNvbnRhaW5lciI+PHBhdGggc3R5bGU9IiIgZmlsbD0iI2VlZSIgc3Ryb2tlLXdpZHRoPSIwIiBzdHJva2U9Im5vbmUiIGQ9Ik0tMTE3LjY3MTg3NSAtNjMgTDExNy42NzE4NzUgLTYzIEwxMTcuNjcxODc1IDYzIEwtMTE3LjY3MTg3NSA2MyI+PC9wYXRoPjxwYXRoIHN0eWxlPSIiIGZpbGw9Im5vbmUiIHN0cm9rZS13aWR0aD0iMS4zIiBzdHJva2U9IiM5OTkiIGQ9Ik0tMTE3LjY3MTg3NSAtNjMgQy0yMy42NjY2NDI5NzI2MzczMiAtNjMsIDcwLjMzODU4OTA1NDcyNTM2IC02MywgMTE3LjY3MTg3NSAtNjMgTS0xMTcuNjcxODc1IC02MyBDLTQ0LjY1NTQ5NDYwNTc1NzYxIC02MywgMjguMzYwODg1Nzg4NDg0NzggLTYzLCAxMTcuNjcxODc1IC02MyBNMTE3LjY3MTg3NSAtNjMgQzExNy42NzE4NzUgLTMzLjM5OTY3ODc2ODI3MjU3LCAxMTcuNjcxODc1IC0zLjc5OTM1NzUzNjU0NTE0NSwgMTE3LjY3MTg3NSA2MyBNMTE3LjY3MTg3NSAtNjMgQzExNy42NzE4NzUgLTE2LjcwNzIzMTg5NDAyNzE5NiwgMTE3LjY3MTg3NSAyOS41ODU1MzYyMTE5NDU2MSwgMTE3LjY3MTg3NSA2MyBNMTE3LjY3MTg3NSA2MyBDNTguNzI5NTA1NjI0NDIxMzQgNjMsIC0wLjIxMjg2Mzc1MTE1NzMxNDYgNjMsIC0xMTcuNjcxODc1IDYzIE0xMTcuNjcxODc1IDYzIEMyNC4wMTE5NjAwNzU2MDc5NiA2MywgLTY5LjY0Nzk1NDg0ODc4NDA4IDYzLCAtMTE3LjY3MTg3NSA2MyBNLTExNy42NzE4NzUgNjMgQy0xMTcuNjcxODc1IDI0LjE3OTY0ODcxMjg2OTUsIC0xMTcuNjcxODc1IC0xNC42NDA3MDI1NzQyNjA5OTksIC0xMTcuNjcxODc1IC02MyBNLTExNy42NzE4NzUgNjMgQy0xMTcuNjcxODc1IDMxLjUyNTk1ODY1ODg2ODMyLCAtMTE3LjY3MTg3NSAwLjA1MTkxNzMxNzczNjYzODMyNCwgLTExNy42NzE4NzUgLTYzIj48L3BhdGg+PC9nPjxnIHRyYW5zZm9ybT0idHJhbnNsYXRlKDAsIC0zOSkiIGNsYXNzPSJhbm5vdGF0aW9uLWdyb3VwIHRleHQiPjwvZz48ZyB0cmFuc2Zvcm09InRyYW5zbGF0ZSgtNjguOTA2MjUsIC0zOSkiIGNsYXNzPSJsYWJlbC1ncm91cCB0ZXh0Ij48ZyB0cmFuc2Zvcm09InRyYW5zbGF0ZSgwLC0xMikiIHN0eWxlPSJmb250LXdlaWdodDogYm9sZGVyIiBjbGFzcz0ibGFiZWwiPjxmb3JlaWduT2JqZWN0IGhlaWdodD0iMjQiIHdpZHRoPSIxMzcuODEyNSI+PGRpdiBzdHlsZT0iZGlzcGxheTogdGFibGUtY2VsbDsgd2hpdGUtc3BhY2U6IG5vd3JhcDsgbGluZS1oZWlnaHQ6IDEuNTsgbWF4LXdpZHRoOiAxODBweDsgdGV4dC1hbGlnbjogY2VudGVyOyIgeG1sbnM9Imh0dHA6Ly93d3cudzMub3JnLzE5OTkveGh0bWwiPjxzcGFuIHN0eWxlPSIiIGNsYXNzPSJub2RlTGFiZWwgbWFya2Rvd24tbm9kZS1sYWJlbCI+PHA+QWJzdHJhY3RGYWN0b3J5RFA8L3A+PC9zcGFuPjwvZGl2PjwvZm9yZWlnbk9iamVjdD48L2c+PC9nPjxnIHRyYW5zZm9ybT0idHJhbnNsYXRlKC0xMDUuNjcxODc1LCA5KSIgY2xhc3M9Im1lbWJlcnMtZ3JvdXAgdGV4dCI+PC9nPjxnIHRyYW5zZm9ybT0idHJhbnNsYXRlKC0xMDUuNjcxODc1LCAzOSkiIGNsYXNzPSJtZXRob2RzLWdyb3VwIHRleHQiPjxnIHRyYW5zZm9ybT0idHJhbnNsYXRlKDAsLTEyKSIgc3R5bGU9IiIgY2xhc3M9ImxhYmVsIj48Zm9yZWlnbk9iamVjdCBoZWlnaHQ9IjI0IiB3aWR0aD0iMTQyLjQzNzUiPjxkaXYgc3R5bGU9ImRpc3BsYXk6IHRhYmxlLWNlbGw7IHdoaXRlLXNwYWNlOiBub3dyYXA7IGxpbmUtaGVpZ2h0OiAxLjU7IG1heC13aWR0aDogMTk4cHg7IHRleHQtYWxpZ246IGNlbnRlcjsiIHhtbG5zPSJodHRwOi8vd3d3LnczLm9yZy8xOTk5L3hodG1sIj48c3BhbiBzdHlsZT0iIiBjbGFzcz0ibm9kZUxhYmVsIG1hcmtkb3duLW5vZGUtbGFiZWwiPjxwPittYWluKFN0cmluZ1tdIGFyZ3MpPC9wPjwvc3Bhbj48L2Rpdj48L2ZvcmVpZ25PYmplY3Q+PC9nPjwvZz48ZyBzdHlsZT0iIiBjbGFzcz0iZGl2aWRlciI+PHBhdGggc3R5bGU9IiIgZmlsbD0ibm9uZSIgc3Ryb2tlLXdpZHRoPSIxLjMiIHN0cm9rZT0iIzk5OSIgZD0iTS0xMTcuNjcxODc1IC0xNSBDLTYxLjQ0MDQ0NDczNDY2MTg3IC0xNSwgLTUuMjA5MDE0NDY5MzIzNzMzNSAtMTUsIDExNy42NzE4NzUgLTE1IE0tMTE3LjY3MTg3NSAtMTUgQy01Mi4xNjI5NzQ3NjQ5OTA3OCAtMTUsIDEzLjM0NTkyNTQ3MDAxODQ0MyAtMTUsIDExNy42NzE4NzUgLTE1Ij48L3BhdGg+PC9nPjxnIHN0eWxlPSIiIGNsYXNzPSJkaXZpZGVyIj48cGF0aCBzdHlsZT0iIiBmaWxsPSJub25lIiBzdHJva2Utd2lkdGg9IjEuMyIgc3Ryb2tlPSIjOTk5IiBkPSJNLTExNy42NzE4NzUgOSBDLTM3Ljk0MzkxNjU4NTcwNDU3IDksIDQxLjc4NDA0MTgyODU5MDg2IDksIDExNy42NzE4NzUgOSBNLTExNy42NzE4NzUgOSBDLTUyLjg3NjE2MzIxODAwNjA4NCA5LCAxMS45MTk1NDg1NjM5ODc4MzEgOSwgMTE3LjY3MTg3NSA5Ij48L3BhdGg+PC9nPjwvZz48L2c+PC9nPjwvZz48L3N2Zz4=;" vertex="1" parent="1">
                        <mxGeometry x="-280" y="-140" width="1332.0438232421875" height="857.2000732421875" as="geometry"/>
                    </mxCell>
                </UserObject>
            </root>
        </mxGraphModel>
    </diagram>
</mxfile>